<?xml version="1.0" encoding="UTF-8"?>
<!DOCTYPE svg PUBLIC "-//W3C//DTD SVG 1.1//EN" "http://www.w3.org/Graphics/SVG/1.1/DTD/svg11.dtd">
<!-- Creator: CorelDRAW -->
<svg xmlns="http://www.w3.org/2000/svg" xml:space="preserve" width="2048px" height="2048px" style="shape-rendering:geometricPrecision; text-rendering:geometricPrecision; image-rendering:optimizeQuality; fill-rule:evenodd; clip-rule:evenodd"
viewBox="0 0 2048 2048"
 xmlns:xlink="http://www.w3.org/1999/xlink">
 <defs>
  <style type="text/css">
   <![CDATA[
    .fil2 {fill:none}
    .fil1 {fill:#424242}
    .fil0 {fill:#424242;fill-rule:nonzero}
   ]]>
  </style>
 </defs>
 <g id="Layer_x0020_1">
  <metadata id="CorelCorpID_0Corel-Layer"/>
  <g id="_387982856">
   <path id="_387983192" class="fil0" d="M1024 354.721c85.5544,0 163.448,6.85867 220.218,17.9457 70.7776,13.8236 114.556,39.3107 114.556,73.1894 0,33.8776 -43.7788,59.3658 -114.556,73.1894 -56.7697,11.087 -134.663,17.9457 -220.218,17.9457 -85.5544,0 -163.448,-6.85867 -220.218,-17.9457 -70.7776,-13.8236 -114.556,-39.3118 -114.556,-73.1894 0,-33.8788 43.7788,-59.3658 114.556,-73.1894 56.7697,-11.087 134.663,-17.9457 220.218,-17.9457z"/>
   <path id="_387983672" class="fil0" d="M1035.16 428.06c0,13.2543 -10.7457,24 -24,24 -13.2543,0 -24,-10.7457 -24,-24l0 -123.527c0,-13.2543 10.7457,-24 24,-24 13.2543,0 24,10.7457 24,24l0 123.527z"/>
   <path id="_387983768" class="fil0" d="M987.039 320.064c-17.6728,0 -32.0008,-14.328 -32.0008,-32.0008 0,-17.6728 14.328,-32.0008 32.0008,-32.0008l48.2445 0c17.6728,0 32.0008,14.328 32.0008,32.0008 0,17.6728 -14.328,32.0008 -32.0008,32.0008l-48.2445 0z"/>
   <path id="_387983240" class="fil1" d="M706.913 690.112c-92.028,54.9331 -168.641,133.068 -221.764,226.351 -51.476,90.3946 -80.8843,194.876 -80.8843,306.105 0,117.209 32.7012,226.971 89.5016,320.675 58.1493,95.9304 141.598,174.81 241.071,227.398 3.9437,2.55355 8.51457,4.27559 13.4917,4.88268 98.2891,12.1299 193.018,16.9748 285.075,16.3606 91.9737,-0.614174 180.186,-6.6756 265.891,-16.3606l-0.00708662 -0.0661418c3.82559,-0.420473 7.63938,-1.54606 11.2571,-3.43465 100.628,-52.5827 185.028,-132.008 243.689,-228.781 56.8004,-93.704 89.5016,-203.465 89.5016,-320.674 0,-111.228 -29.4083,-215.711 -80.8843,-306.105 -53.1213,-93.2824 -129.736,-171.418 -221.764,-226.351 -21.6992,-15.7087 -38.7508,-33.0591 -50.1036,-51.4654 -10.1965,-16.5307 -15.7299,-34.1233 -15.7299,-52.2827 0,-15.3295 4.00276,-30.3201 11.4697,-44.6611 -12.8622,3.75237 -25.3453,6.59646 -36.3721,8.74961 -72.7583,14.2099 -152.33,18.5386 -226.351,18.5386 -74.0209,0 -153.593,-4.32874 -226.351,-18.5386 -11.0091,-2.15079 -23.4697,-4.9878 -36.3095,-8.7319 7.42678,14.2713 11.4071,29.2536 11.4071,44.6433 0,18.1595 -5.53347,35.752 -15.7299,52.2827 -11.3528,18.4063 -28.4044,35.7567 -50.1036,51.4654zm90.4276 349.948l453.319 0c8.83583,0 16.0004,7.16457 16.0004,16.0004l0 69.3603c27.5977,12.4311 47.8489,27.215 60.5575,43.0229 11.3339,14.0988 16.9429,29.165 16.7469,44.4178 -0.197244,15.398 -6.23741,30.2859 -18.1961,43.8626 -12.6839,14.4012 -32.3705,27.4961 -59.1083,38.1378l0 68.8264c0,8.83583 -7.16457,16.0004 -16.0004,16.0004l-453.319 0c-8.83583,0 -16.0004,-7.16457 -16.0004,-16.0004l0 -68.8264c-26.7378,-10.6417 -46.4244,-23.7366 -59.1083,-38.1378 -11.9587,-13.5768 -17.9988,-28.4634 -18.1961,-43.8626 -0.196063,-15.2528 5.413,-30.3177 16.7469,-44.4166 12.7075,-15.8079 32.9599,-30.5918 60.5575,-43.024l0 -69.3603c0,-8.83583 7.16457,-16.0004 16.0004,-16.0004z"/>
  </g>
 </g>
 <rect class="fil2" width="2048" height="2048"/>
</svg>
