<?xml version="1.0" encoding="UTF-8"?>
<!DOCTYPE svg PUBLIC "-//W3C//DTD SVG 1.1//EN" "http://www.w3.org/Graphics/SVG/1.1/DTD/svg11.dtd">
<!-- Creator: CorelDRAW -->
<svg xmlns="http://www.w3.org/2000/svg" xml:space="preserve" width="2048px" height="2048px" style="shape-rendering:geometricPrecision; text-rendering:geometricPrecision; image-rendering:optimizeQuality; fill-rule:evenodd; clip-rule:evenodd"
viewBox="0 0 2048 2048"
 xmlns:xlink="http://www.w3.org/1999/xlink">
 <defs>
  <style type="text/css">
   <![CDATA[
    .fil1 {fill:none}
    .fil0 {fill:#424242;fill-rule:nonzero}
   ]]>
  </style>
 </defs>
 <g id="Layer_x0020_1">
  <metadata id="CorelCorpID_0Corel-Layer"/>
  <g id="_362996880">
   <path id="_362997192" class="fil0" d="M288 1040.16c-17.6728,0 -32.0008,-14.328 -32.0008,-32.0008 0,-17.6728 14.328,-32.0008 32.0008,-32.0008l1472 0c17.6728,0 32.0008,14.328 32.0008,32.0008 0,17.6728 -14.328,32.0008 -32.0008,32.0008l-1472 0z"/>
   <g>
    <polygon id="_362997120" class="fil0" points="491.507,1008.16 491.507,1392.16 427.505,1392.16 427.505,1008.16 "/>
    <polygon id="_362996928" class="fil0" points="1620.49,1008.16 1620.49,1392.16 1556.49,1392.16 1556.49,1008.16 "/>
   </g>
   <path id="_362997240" class="fil0" d="M709.87 744.169l447.78 14.1201c22.95,0.724016 39.9154,12.9756 53.3965,24.9862l351.865 11.0953 31.2709 -47.7945c16.8414,-25.7398 36.2256,-28.9666 56.4095,-15.7571 12.8941,8.43544 21.0331,27.026 24.6414,50.2205 2.56418,16.4764 3.62126,36.991 2.97638,57.4418 -1.85197,58.7764 -21.0768,118.722 -63.3213,117.391l-36.9473 -1.16575c-71.6953,-2.26063 -144.026,-2.34213 -215.744,-2.42244 -71.5441,-0.080315 -142.497,-0.159449 -210.582,-2.30669l-447.779 -14.1201c-45.639,-1.43976 -74.269,-27.75 -86.302,-60.6485 -4.43622,-12.1335 -6.43465,-25.2059 -6.02599,-38.1981 0.408662,-12.9945 3.2315,-25.9217 8.42717,-37.7575 14.0799,-32.0717 44.3044,-56.5241 89.9351,-55.0843z"/>
   <path id="_362997288" class="fil0" d="M371.927 779.71c1.11496,-35.3315 16.4126,-66.8375 40.2437,-89.2123 23.8618,-22.4032 56.2843,-35.7024 91.6099,-34.5898 35.3315,1.11496 66.8375,16.4126 89.2123,40.2437 22.4032,23.8618 35.7024,56.2843 34.5898,91.6099 -1.1126,35.3315 -16.4138,66.8386 -40.2437,89.2123 -23.8618,22.4032 -56.2843,35.7036 -91.6099,34.5898 -35.3315,-1.1126 -66.8386,-16.4138 -89.2123,-40.2437 -22.4032,-23.8618 -35.7036,-56.2843 -34.5898,-91.6099z"/>
   <path id="_362996856" class="fil0" d="M401.492 967.479c-13.2543,0 -24,-10.7457 -24,-24 0,-13.2543 10.7457,-24 24,-24l150.389 0c13.2543,0 24,10.7457 24,24 0,13.2543 -10.7457,24 -24,24l-150.389 0z"/>
  </g>
 </g>
 <rect class="fil1" width="2048" height="2048"/>
</svg>
