<?xml version="1.0" encoding="UTF-8"?>
<!DOCTYPE svg PUBLIC "-//W3C//DTD SVG 1.1//EN" "http://www.w3.org/Graphics/SVG/1.1/DTD/svg11.dtd">
<!-- Creator: CorelDRAW -->
<svg xmlns="http://www.w3.org/2000/svg" xml:space="preserve" width="2048px" height="2048px" style="shape-rendering:geometricPrecision; text-rendering:geometricPrecision; image-rendering:optimizeQuality; fill-rule:evenodd; clip-rule:evenodd"
viewBox="0 0 2048 2048"
 xmlns:xlink="http://www.w3.org/1999/xlink">
 <defs>
  <style type="text/css">
   <![CDATA[
    .fil1 {fill:none}
    .fil0 {fill:#424242;fill-rule:nonzero}
   ]]>
  </style>
 </defs>
 <g id="Layer_x0020_1">
  <metadata id="CorelCorpID_0Corel-Layer"/>
  <g id="_366252496">
   <path id="_366252304" class="fil0" d="M388.441 1231.22l10.9784 5.78741c87.9709,46.4079 209.574,110.556 323.667,127.629 38.967,5.83111 92.1721,3.61654 143.34,-5.47323 46.4894,-8.25946 90.2717,-21.9792 118.441,-40.1705 9.04253,-5.83937 19.3394,-16.774 24.8918,-28.2378 1.39134,-2.87599 2.33386,-5.46024 2.62205,-7.51064 -0.266929,-0.115748 -0.620079,-0.275197 -1.07244,-0.494882 -1.78583,-0.864568 -33.3024,6.98386 -72.1914,16.6701 -68.4095,17.0398 -155.544,38.7437 -216.336,23.2654 -36.3355,-9.2504 -59.8229,-25.5366 -72.8953,-43.754l-0.0413386 -0.0590552 -0.0826772 0.0590552c-9.06142,-12.6307 -13.3016,-26.3823 -13.4788,-40.0122 -0.178347,-13.9158 3.98977,-27.1087 11.6929,-38.4154 10.5969,-15.5551 27.8835,-27.4559 49.3347,-32.1 11.1106,-2.40473 34.0146,-8.72717 64.3595,-17.1024 102.966,-28.4185 287.445,-79.3371 378.913,-81.9201 191.118,-5.40945 239.34,20.4697 350.254,79.9926l3.65079 1.95945c-0.0141732,0.570473 -0.0236221,1.14213 -0.0236221,1.71614l0.219685 400.967c-104.956,-26.7626 -210.885,-6.29292 -318.382,14.4815 -22.0524,4.2626 -44.1532,8.53347 -63.3827,11.9469 -81.1477,14.4036 -170.816,27.6803 -243.355,35.7496 -66.5623,7.40434 -119.952,10.2106 -141.851,5.3504 -45.6095,-10.1138 -126.155,-47.1957 -205.141,-89.0965 -94.7186,-50.2477 -189.307,-108.573 -218.943,-135.743l-0.0673229 -0.0625985 -0.0578741 0.0625985c-35.4992,-32.5536 -48.7359,-67.6382 -47.2949,-97.6465 0.778347,-16.2201 5.82048,-30.9721 14.074,-43.3465 8.30552,-12.4524 19.8461,-22.3323 33.5599,-28.7327 24.1087,-11.2559 54.4737,-11.6209 84.5965,4.24134z"/>
   <path id="_366252232" class="fil0" d="M1557.34 1121.16l200.837 -6.29056c17.6043,-0.551575 32.3244,13.2709 32.876,30.8752 0.0200788,0.633071 0.0177165,1.26142 0.0011811,1.88622l0.839764 449.503c0,17.6043 -14.2713,31.8756 -31.8756,31.8756l0 0.125197 -0.32126 0 0 -0.125197 -201.114 -0.00944883c-17.6043,0 -31.8756,-14.2713 -31.8756,-31.8756l-0.243307 -444.089c0,-17.2701 13.7339,-31.3299 30.8752,-31.8579l0 -0.0177165z"/>
   <path id="_366252112" class="fil0" d="M549.625 1276.19l0 -266.442c0,-14.7402 9.96733,-27.15 23.5288,-30.8646l290.005 -111.385c16.4291,-6.28229 34.8425,1.94528 41.1248,18.3744 1.4315,3.7441 2.10709,7.59213 2.10709,11.3752l0.144095 0 0 182.36c-51.3355,12.8256 -102.367,26.765 -153.377,40.8426 -20.4473,5.64449 -41.9315,12.1961 -62.6162,16.6736 -27.8103,6.02008 -52.8957,21.7063 -69.0107,45.3591 -11.4437,16.7988 -17.5063,36.4902 -17.2441,56.8453 0.272835,21.137 7.17638,41.1095 19.4752,58.252l8.12008 11.3185c-27.6626,-9.39331 -55.1977,-20.5807 -82.2568,-32.7095z"/>
   <path id="_366252040" class="fil0" d="M636.957 532.036c26.7697,-45.3615 62.6138,-87.3367 105.416,-109.574l0.00826772 0.0165354c5.74961,-2.99528 12.4618,-4.27677 19.3666,-3.26693 17.465,2.55355 29.5536,18.7854 27,36.2504 -8.01024,54.7288 17.7225,96.3024 41.4744,134.676 22.9347,37.0512 44.4083,71.7461 43.8697,116.867 -0.444095,37.1906 -15.4595,69.5658 -42.2611,92.739 -24.6461,21.3083 -58.9666,34.2555 -100.484,35.0516 -5.59961,0.103937 -1.09961,0.159449 -4.10788,0.159449 -34.4575,0 -69.3367,-8.22284 -96.7111,-29.5181 -28.1977,-21.9354 -47.3079,-56.2937 -48.4217,-107.445l-0.0141732 -0.43937c-0.106299,-5.47678 -0.158268,-1.4811 -0.158268,-4.09016 0,-35.6847 20.2795,-102.554 55.0229,-161.426z"/>
   <path id="_366251896" class="fil0" d="M696.08 802.548c0,-17.6728 14.328,-32.0008 32.0008,-32.0008 17.6728,0 32.0008,14.328 32.0008,32.0008l0 150.953c0,17.6728 -14.328,32.0008 -32.0008,32.0008 -17.6728,0 -32.0008,-14.328 -32.0008,-32.0008l0 -150.953z"/>
  </g>
 </g>
 <rect class="fil1" width="2048" height="2048"/>
</svg>
