<?xml version="1.0" encoding="UTF-8"?>
<!DOCTYPE svg PUBLIC "-//W3C//DTD SVG 1.1//EN" "http://www.w3.org/Graphics/SVG/1.1/DTD/svg11.dtd">
<!-- Creator: CorelDRAW -->
<svg xmlns="http://www.w3.org/2000/svg" xml:space="preserve" width="2048px" height="2048px" style="shape-rendering:geometricPrecision; text-rendering:geometricPrecision; image-rendering:optimizeQuality; fill-rule:evenodd; clip-rule:evenodd"
viewBox="0 0 2048 2048"
 xmlns:xlink="http://www.w3.org/1999/xlink">
 <defs>
  <style type="text/css">
   <![CDATA[
    .fil2 {fill:none}
    .fil1 {fill:#424242}
    .fil0 {fill:#424242;fill-rule:nonzero}
   ]]>
  </style>
 </defs>
 <g id="Layer_x0020_1">
  <metadata id="CorelCorpID_0Corel-Layer"/>
  <g id="_387984992">
   <path id="_387969536" class="fil0" d="M287.733 1291.75c-17.5252,0 -31.7339,-14.2087 -31.7339,-31.7351 0,-17.5252 14.2087,-31.7339 31.7339,-31.7339l111.847 0c-8.40355,19.8638 -12.8421,41.3953 -12.8421,63.4689l-99.0048 0z"/>
   <path id="_387969656" class="fil0" d="M1631.14 1291.75c-9.83741,0 -18.6284,-4.47756 -24.4488,-11.5051 -0.748819,-10.6536 -2.53347,-21.1311 -5.29725,-31.304 4.49292,-12.065 16.1162,-20.6599 29.7461,-20.6599l129.124 0c17.5264,0 31.7339,14.2087 31.7339,31.7339 0,17.5264 -14.2075,31.7351 -31.7339,31.7351l-129.124 0z"/>
   <path id="_387985376" class="fil0" d="M1444.2 1160.85c36.1429,0 68.869,14.6539 92.5595,38.3445 23.6882,23.687 38.3422,56.4154 38.3422,92.5583 0,36.1429 -14.6528,68.869 -38.3422,92.5595 -23.6906,23.6882 -56.4166,38.3422 -92.5595,38.3422 -36.1429,0 -68.8701,-14.6551 -92.5583,-38.3422 -23.6906,-23.6906 -38.3445,-56.4166 -38.3445,-92.5595 0,-36.1441 14.6539,-68.8713 38.3445,-92.5583 23.6882,-23.6906 56.4142,-38.3445 92.5583,-38.3445z"/>
   <path id="_387985328" class="fil0" d="M549.639 1160.85c36.1441,0 68.8713,14.6539 92.5583,38.3445 23.6906,23.687 38.3445,56.4142 38.3445,92.5583 0,36.1429 -14.6539,68.869 -38.3445,92.5595 -23.687,23.687 -56.4154,38.3422 -92.5583,38.3422 -36.1429,0 -68.869,-14.6539 -92.5595,-38.3422 -23.6894,-23.6906 -38.3422,-56.4166 -38.3422,-92.5595 0,-36.1429 14.6539,-68.8713 38.3422,-92.5583 23.6906,-23.6906 56.4166,-38.3445 92.5595,-38.3445z"/>
   <path id="_387984656" class="fil1" d="M1753.67 1228.28l-30.013 -523.354c-1.25315,-21.841 -10.3736,-41.7567 -24.7264,-56.1095 -14.4933,-14.4945 -34.1516,-23.4721 -56.4674,-23.4721l-897.301 0 0 0.151181c-8.99646,0.00472441 -17.928,3.83032 -24.1725,11.2536l-220.707 262.173 -150.698 41.2902c-13.702,2.81221 -24.3638,14.5311 -25.2236,29.1591l-15.7453 258.908 -1.68307 27.6756c-0.168898,1.32992 -0.257481,2.68465 -0.257481,4.06063 0,17.3953 13.9996,31.5236 31.3441,31.7327l0.390945 0.00236221 48.3248 -0.0011811c0,-43.3205 17.087,-84.5587 47.7154,-115.186 30.6284,-30.6272 71.863,-47.7166 115.186,-47.7166 43.3229,0 84.5575,17.0894 115.186,47.7166 30.6272,30.6284 47.7166,71.863 47.7166,115.186l568.752 0c0,-43.3229 17.0894,-84.5587 47.7178,-115.186 30.6284,-30.6272 71.8619,-47.7166 115.185,-47.7166 43.3229,0 84.5575,17.0894 115.186,47.7166 30.6284,30.6272 47.7154,71.8654 47.7154,115.185l24.0437 0 92.641 0.00236221 0 -0.0779528c0.575197,0 1.15512,-0.0153543 1.73622,-0.0472441 17.4579,-0.957875 30.8327,-15.8882 29.8748,-33.3461l-1.72087 -30zm-478.898 -392.359l0 -57.4134 47.6008 0 0 57.4134 75.8197 0 0 47.6008 -75.8197 0 0 193.765 -47.6008 0 0 -193.765 -75.8197 0 0 -47.6008 75.8197 0zm-450.186 154.357c8.76142,0 15.8669,7.10434 15.8669,15.8669 0,8.76261 -7.10552,15.8669 -15.8669,15.8669l-37.917 0c-8.76261,0 -15.8669,-7.10434 -15.8669,-15.8669 0,-8.76261 7.10434,-15.8669 15.8669,-15.8669l37.917 0zm74.1213 -313.138l0 261.344 -355.193 0 220.01 -261.344 135.183 0z"/>
  </g>
 </g>
 <rect class="fil2" width="2048" height="2048"/>
</svg>
