<svg xmlns:xlink="http://www.w3.org/1999/xlink" xmlns="http://www.w3.org/2000/svg" xml:space="preserve" style="max-height: 500px" viewBox="320 248 863.9999999999999 484" y="0px" x="0px" id="Layer_1" version="1.1" width="863.9999999999999" height="484">
<style type="text/css">
	.st0{fill:#9d8869;}
	.st1{fill:#E8E2D2;}
</style>
<g>
	<g>
		<path d="M572.73,316c0,0,5-8,5-8l16.5,9.39c0,0,36.84,18.57,60.58-0.55c5.65-4.55,11.15-9.18,16.54-14.04&#10;&#9;&#9;&#9;c7.07-6.39,11.99-14.2,20.75-18.53c16.19-8.01,33.41-3.76,45.44,9.29c14.87,16.13,19.92,41.18,21.18,62.45&#10;&#9;&#9;&#9;c0,0,3.96,66.46,29.27,109.58c0,0-26.9-30.46-34.42-111.16c0,0-1.58-35.21-22.94-57.76c-6.3-6.65-15.52-9.9-24.6-8.28&#10;&#9;&#9;&#9;c-9.79,1.75-18.99,8.41-24.92,16.13c-20.85,27.12-50.97,36.87-83.01,23.01c0,0,15.43,27.69,17.8,57.36&#10;&#9;&#9;&#9;c5.34,28.14,15.54,57.99,32.38,81.3c11.13,15.42,26.67,28.67,44.19,36.26c21.17,9.17,45.08,9.52,67.43,5.08l58.55-15.82&#10;&#9;&#9;&#9;c0,0,61.71-14.64,67.25-15.82c0,0-71.6,22.55-71.6,22.55c-25.72,8.1-55.24,17.93-82.66,17.43c-25.97-0.47-52.08-9.54-71.64-26.8&#10;&#9;&#9;&#9;c-6.85-6.05-13.96-12.15-19.48-19.48c-15.43-20.49-25.66-44.22-29.35-69.46c-2.7-18.49-7.34-37.07-15.4-53.98&#10;&#9;&#9;&#9;c-2.83-5.92-6.11-11.66-10.03-16.93C584.64,327.99,573.1,315.41,572.73,316z" class="st0"/>
		<path d="M755.9,462.35c15.77,7.15,33.79,11.6,51.06,12.27c7.6,0.29,15.27-0.34,22.64-2.29&#10;&#9;&#9;&#9;c7.01-1.86,13.35-5.41,20.31-7.41c12.62-3.61,26.26-4.2,39.1-1.44c10.58,2.28,25.24,7.81,28.29,19.61&#10;&#9;&#9;&#9;c-0.45-1.76-4.44-3.87-5.78-4.69c-6.13-3.78-13.29-5.74-20.38-6.69c-6.29-0.84-12.67-0.86-18.98-0.37&#10;&#9;&#9;&#9;c-7.44,0.57-14.2,1.26-21.11,4.13c-11.84,4.92-23.88,8.34-36.78,8.52c-9.41,0.13-18.82-1.32-27.76-4.3&#10;&#9;&#9;&#9;c-5.24-1.75-10.3-4.01-15.12-6.69c-2.72-1.51-5.36-3.16-7.92-4.92C761.06,466.42,758.52,463.54,755.9,462.35z" class="st0"/>
		<path d="M768.21,358.37c0,0,32.8,35.96,32.84,36c5.75,6.3,10.38,12.76,17.36,18.03&#10;&#9;&#9;&#9;c14.87,11.24,32.19,15.3,50.52,15.51c8.22,0.1,16.08,3.09,23.6,6.47c20.42,9.16,38.14,26.19,34.2,50.4&#10;&#9;&#9;&#9;c-0.18,1.12-0.41,2.24-0.67,3.34c0,0,1.19,23.82-29.67,15.87c0,0-22.19-13.1-34.02-15.08c0,0,23.46,2.85,31.25,9.49&#10;&#9;&#9;&#9;c0,0,18.79,10.15,25.71-9.89c0,0,12.49-29.72-37.98-49.05c0,0-21.76-5.54-31.65-5.14c0,0-20.18-0.79-38.37-19.38&#10;&#9;&#9;&#9;C811.33,414.94,770.19,370.64,768.21,358.37z" class="st0"/>
		<path d="M763.97,430.13l-28.77-20.69c0,0-3.4-5.24,3.54-4.54l17.16,1.98c0,0-11.26-13.89-26.68-6.66&#10;&#9;&#9;&#9;c0,0-10.89,12.05,7.68,21.83C755.46,431.83,763.97,430.13,763.97,430.13z" class="st0"/>
	</g>
	<g>
		<g>
			<path d="M364.91,551.51v3.38h-28.18v26.05h24.62v3.38h-24.62v29.6h-4v-62.41H364.91z" class="st0"/>
			<path d="M399.04,551.51v62.41h-4v-62.41H399.04z" class="st0"/>
			<path d="M477.89,613.92h-4l-36.63-55.83v55.83h-4V551.6h4l36.63,55.65V551.6h4V613.92z" class="st0"/>
			<path d="M547.5,597.92h-29.6l-5.96,16h-4.36l22.94-60.98h4.45l22.85,60.98h-4.36L547.5,597.92z M546.25,594.54&#10;&#9;&#9;&#9;&#9;l-13.51-36.36l-13.6,36.36H546.25z" class="st0"/>
			<path d="M591.41,610.54h23.2v3.38h-27.2v-62.41h4V610.54z" class="st0"/>
			<path d="M713.91,551.51v48.45c0,4.33-1.33,7.84-4,10.53c-2.67,2.7-6.28,4.04-10.85,4.04c-4.8,0-8.58-1.47-11.33-4.4&#10;&#9;&#9;&#9;&#9;c-2.76-2.93-4.13-6.98-4.13-12.13h4c0,3.79,0.92,6.9,2.76,9.33c1.84,2.43,4.74,3.64,8.71,3.64c3.79,0,6.53-1.08,8.22-3.24&#10;&#9;&#9;&#9;&#9;c1.69-2.16,2.53-4.76,2.53-7.78v-48.45H713.91z"  class="st1"/>
			<path d="M760.85,610.59c-4.62-2.7-8.24-6.47-10.85-11.33c-2.61-4.86-3.91-10.34-3.91-16.45c0-6.16,1.3-11.66,3.91-16.49&#10;&#9;&#9;&#9;&#9;c2.61-4.83,6.22-8.59,10.85-11.29c4.62-2.7,9.81-4.05,15.56-4.05c5.75,0,10.93,1.35,15.56,4.05c4.62,2.7,8.24,6.46,10.85,11.29&#10;&#9;&#9;&#9;&#9;c2.61,4.83,3.91,10.33,3.91,16.49c0,6.1-1.3,11.59-3.91,16.45c-2.61,4.86-6.22,8.64-10.85,11.33c-4.62,2.7-9.81,4.05-15.56,4.05&#10;&#9;&#9;&#9;&#9;C770.66,614.63,765.48,613.28,760.85,610.59z M789.74,607.61c3.97-2.31,7.1-5.6,9.38-9.87c2.28-4.27,3.42-9.25,3.42-14.94&#10;&#9;&#9;&#9;&#9;c0-5.75-1.14-10.76-3.42-15.02c-2.28-4.27-5.41-7.56-9.38-9.87c-3.97-2.31-8.42-3.47-13.34-3.47c-4.92,0-9.36,1.16-13.33,3.47&#10;&#9;&#9;&#9;&#9;c-3.97,2.31-7.11,5.6-9.42,9.87c-2.31,4.27-3.47,9.28-3.47,15.02c0,5.69,1.16,10.67,3.47,14.94c2.31,4.27,5.45,7.56,9.42,9.87&#10;&#9;&#9;&#9;&#9;c3.97,2.31,8.41,3.47,13.33,3.47C781.33,611.08,785.77,609.92,789.74,607.61z"   class="st1"/>
			<path d="M842.02,551.51v39.03c0,7.05,1.6,12.22,4.8,15.51c3.2,3.29,7.56,4.93,13.07,4.93c5.45,0,9.75-1.63,12.89-4.89&#10;&#9;&#9;&#9;&#9;c3.14-3.26,4.71-8.45,4.71-15.56v-39.03h4v38.94c0,8.12-1.96,14.16-5.87,18.14c-3.91,3.97-9.16,5.96-15.73,5.96s-11.87-2-15.87-6&#10;&#9;&#9;&#9;&#9;c-4-4-6-10.03-6-18.09v-38.94H842.02z"   class="st1"/>
			<path d="M948.96,613.92l-16-26.58h-0.36h-13.33v26.58h-4v-62.41h17.16c6.93,0,12.13,1.63,15.6,4.89c3.47,3.26,5.2,7.59,5.2,12.98&#10;&#9;&#9;&#9;&#9;c0,4.8-1.35,8.76-4.05,11.87c-2.7,3.11-6.62,5.02-11.78,5.73l16.36,26.94H948.96z M919.27,583.96h13.33c5.51,0,9.63-1.33,12.36-4&#10;&#9;&#9;&#9;&#9;c2.73-2.67,4.09-6.19,4.09-10.58c0-9.54-5.54-14.31-16.62-14.31h-13.16V583.96z"   class="st1"/>
			<path d="M1029.32,613.92h-4l-36.63-55.83v55.83h-4V551.6h4l36.63,55.65V551.6h4V613.92z"   class="st1"/>
			<path d="M1067.55,554.89v26.05h24.89v3.38h-24.89v26.22h27.56v3.38h-31.56v-62.41h31.56v3.38H1067.55z"   class="st1"/>
			<path d="M1165.24,551.51l-19.65,37.16v25.25h-4v-25.25l-19.82-37.16h4.53l17.25,33.43l17.16-33.43H1165.24z"   class="st1"/>
		</g>
		<g>
			<g>
				<path d="M334.76,706.08h11.78v1.71h-13.81v-31.68h2.03V706.08z"   class="st1"/>
				<path d="M351.38,688.88c1.01-1.9,2.41-3.35,4.2-4.38c1.79-1.02,3.83-1.53,6.11-1.53c2.59,0,4.78,0.63,6.59,1.9&#10;&#9;&#9;&#9;&#9;&#9;c1.8,1.26,3.07,2.87,3.79,4.83v-6.41h2.03v24.5h-2.03v-6.45c-0.72,1.99-1.99,3.62-3.81,4.9c-1.82,1.28-4.01,1.92-6.57,1.92&#10;&#9;&#9;&#9;&#9;&#9;c-2.29,0-4.33-0.52-6.11-1.56c-1.79-1.04-3.19-2.51-4.2-4.42c-1.01-1.91-1.51-4.13-1.51-6.65S350.37,690.78,351.38,688.88z&#10;&#9;&#9;&#9;&#9;&#9; M370.74,689.85c-0.89-1.64-2.1-2.9-3.63-3.79c-1.53-0.89-3.25-1.33-5.14-1.33c-1.98,0-3.73,0.43-5.23,1.29&#10;&#9;&#9;&#9;&#9;&#9;c-1.51,0.86-2.68,2.1-3.52,3.72c-0.84,1.62-1.26,3.55-1.26,5.78s0.42,4.15,1.26,5.78c0.84,1.62,2.02,2.87,3.54,3.75&#10;&#9;&#9;&#9;&#9;&#9;s3.26,1.31,5.21,1.31c1.9,0,3.62-0.44,5.17-1.33c1.55-0.89,2.76-2.15,3.63-3.79c0.87-1.64,1.31-3.54,1.31-5.71&#10;&#9;&#9;&#9;&#9;&#9;C372.07,693.38,371.63,691.49,370.74,689.85z"   class="st1"/>
				<path d="M382.97,706.35c-1.73-1.2-2.7-2.92-2.91-5.14h2.08c0.15,1.59,0.88,2.86,2.19,3.79c1.31,0.93,3.09,1.4,5.35,1.4&#10;&#9;&#9;&#9;&#9;&#9;c1.87,0,3.35-0.47,4.44-1.42c1.1-0.95,1.65-2.11,1.65-3.5c0-0.96-0.29-1.75-0.88-2.37c-0.59-0.62-1.32-1.09-2.19-1.42&#10;&#9;&#9;&#9;&#9;&#9;c-0.87-0.33-2.06-0.69-3.56-1.08c-1.81-0.48-3.26-0.96-4.38-1.42c-1.11-0.47-2.06-1.17-2.84-2.1c-0.78-0.93-1.17-2.18-1.17-3.75&#10;&#9;&#9;&#9;&#9;&#9;c0-1.14,0.34-2.2,1.04-3.18c0.69-0.98,1.65-1.75,2.89-2.32c1.23-0.57,2.63-0.86,4.2-0.86c2.56,0,4.63,0.64,6.21,1.92&#10;&#9;&#9;&#9;&#9;&#9;c1.58,1.28,2.43,3.05,2.55,5.3h-2.03c-0.09-1.62-0.72-2.95-1.9-3.97c-1.17-1.02-2.8-1.53-4.87-1.53c-1.74,0-3.19,0.45-4.33,1.35&#10;&#9;&#9;&#9;&#9;&#9;c-1.14,0.9-1.71,2-1.71,3.29c0,1.14,0.32,2.07,0.97,2.78c0.65,0.71,1.44,1.25,2.39,1.62c0.95,0.38,2.2,0.77,3.77,1.2&#10;&#9;&#9;&#9;&#9;&#9;c1.71,0.45,3.09,0.9,4.13,1.33c1.04,0.44,1.92,1.07,2.64,1.9c0.72,0.83,1.08,1.93,1.08,3.32c0,1.26-0.35,2.41-1.04,3.43&#10;&#9;&#9;&#9;&#9;&#9;c-0.69,1.02-1.65,1.82-2.89,2.39c-1.23,0.57-2.62,0.86-4.15,0.86C386.93,708.15,384.7,707.55,382.97,706.35z"   class="st1"/>
				<path d="M406.95,685.05v16.2c0,1.81,0.33,3.05,0.99,3.72c0.66,0.68,1.83,1.01,3.52,1.01h2.75v1.81h-3.07&#10;&#9;&#9;&#9;&#9;&#9;c-2.14,0-3.71-0.5-4.72-1.51c-1.01-1.01-1.51-2.69-1.51-5.03v-16.2h-3.7v-1.76h3.7v-6.23h2.03v6.23h7.27v1.76H406.95z"   class="st1"/>
				<path d="M419.41,677.35c-0.33-0.32-0.5-0.74-0.5-1.29c0-0.51,0.17-0.93,0.5-1.26c0.33-0.33,0.74-0.5,1.22-0.5&#10;&#9;&#9;&#9;&#9;&#9;s0.89,0.17,1.22,0.5c0.33,0.33,0.5,0.75,0.5,1.26c0,0.54-0.17,0.97-0.5,1.29c-0.33,0.32-0.74,0.47-1.22,0.47&#10;&#9;&#9;&#9;&#9;&#9;S419.74,677.67,419.41,677.35z M421.62,683.29v24.5h-2.03v-24.5H421.62z"   class="st1"/>
				<path d="M447.25,685.48c1.83,1.79,2.75,4.45,2.75,7.96v14.35h-1.99v-14.21c0-2.92-0.74-5.15-2.21-6.7&#10;&#9;&#9;&#9;&#9;&#9;c-1.47-1.55-3.47-2.32-6-2.32c-2.65,0-4.76,0.84-6.34,2.53c-1.58,1.68-2.37,4.18-2.37,7.49v13.22h-2.03v-24.5h2.03v5.19&#10;&#9;&#9;&#9;&#9;&#9;c0.69-1.83,1.84-3.24,3.45-4.22s3.47-1.47,5.57-1.47C443.03,682.79,445.41,683.69,447.25,685.48z"   class="st1"/>
				<path d="M474.32,684.84c1.8,1.25,3.07,2.85,3.79,4.81v-6.36h2.03v25.27c0,2.26-0.5,4.23-1.49,5.93&#10;&#9;&#9;&#9;&#9;&#9;c-0.99,1.7-2.33,3.01-4.02,3.93c-1.69,0.92-3.56,1.38-5.64,1.38c-3.07,0-5.61-0.74-7.63-2.21c-2.02-1.47-3.34-3.46-3.97-5.96&#10;&#9;&#9;&#9;&#9;&#9;h2.03c0.6,1.95,1.73,3.51,3.38,4.67c1.65,1.16,3.72,1.74,6.18,1.74c1.71,0,3.26-0.38,4.65-1.15c1.38-0.77,2.47-1.87,3.27-3.29&#10;&#9;&#9;&#9;&#9;&#9;c0.8-1.43,1.2-3.11,1.2-5.03v-7.18c-0.72,1.96-1.99,3.57-3.81,4.85c-1.82,1.28-4.01,1.92-6.57,1.92c-2.29,0-4.33-0.52-6.11-1.56&#10;&#9;&#9;&#9;&#9;&#9;c-1.79-1.04-3.19-2.51-4.2-4.42c-1.01-1.91-1.51-4.13-1.51-6.65s0.5-4.74,1.51-6.63c1.01-1.9,2.41-3.35,4.2-4.38&#10;&#9;&#9;&#9;&#9;&#9;c1.79-1.02,3.83-1.53,6.11-1.53C470.32,682.97,472.52,683.6,474.32,684.84z M476.78,689.85c-0.89-1.64-2.1-2.9-3.63-3.79&#10;&#9;&#9;&#9;&#9;&#9;c-1.53-0.89-3.25-1.33-5.14-1.33c-1.98,0-3.73,0.43-5.23,1.29c-1.51,0.86-2.68,2.1-3.52,3.72c-0.84,1.62-1.26,3.55-1.26,5.78&#10;&#9;&#9;&#9;&#9;&#9;s0.42,4.15,1.26,5.78c0.84,1.62,2.02,2.87,3.54,3.75c1.52,0.87,3.26,1.31,5.21,1.31c1.9,0,3.62-0.44,5.17-1.33&#10;&#9;&#9;&#9;&#9;&#9;c1.55-0.89,2.76-2.15,3.63-3.79c0.87-1.64,1.31-3.54,1.31-5.71C478.11,693.38,477.67,691.49,476.78,689.85z"   class="st1"/>
				<path d="M536.09,685.48c1.78,1.79,2.66,4.45,2.66,7.96v14.35h-1.99v-14.21c0-2.92-0.7-5.15-2.1-6.7&#10;&#9;&#9;&#9;&#9;&#9;c-1.4-1.55-3.32-2.32-5.75-2.32c-2.53,0-4.56,0.87-6.09,2.62c-1.53,1.75-2.3,4.27-2.3,7.58v13.04h-1.99v-14.21&#10;&#9;&#9;&#9;&#9;&#9;c0-2.92-0.7-5.15-2.1-6.7c-1.4-1.55-3.32-2.32-5.75-2.32c-2.53,0-4.56,0.87-6.09,2.62c-1.53,1.75-2.3,4.27-2.3,7.58v13.04h-2.03&#10;&#9;&#9;&#9;&#9;&#9;v-24.5h2.03v5.32c0.69-1.92,1.81-3.38,3.36-4.35c1.55-0.98,3.33-1.47,5.35-1.47c2.23,0,4.14,0.58,5.75,1.74&#10;&#9;&#9;&#9;&#9;&#9;c1.61,1.16,2.71,2.87,3.32,5.12c0.57-2.26,1.68-3.96,3.34-5.12c1.65-1.16,3.59-1.74,5.82-1.74&#10;&#9;&#9;&#9;&#9;&#9;C532.03,682.79,534.32,683.69,536.09,685.48z"   class="st1"/>
				<path d="M567.95,696.33h-21.16c0.06,2.2,0.54,4.05,1.44,5.55c0.9,1.5,2.09,2.63,3.56,3.38c1.47,0.75,3.08,1.13,4.83,1.13&#10;&#9;&#9;&#9;&#9;&#9;c2.41,0,4.42-0.59,6.05-1.78s2.65-2.81,3.07-4.85h2.12c-0.48,2.5-1.71,4.52-3.7,6.07c-1.99,1.55-4.5,2.32-7.54,2.32&#10;&#9;&#9;&#9;&#9;&#9;c-2.29,0-4.33-0.51-6.14-1.53c-1.8-1.02-3.22-2.49-4.24-4.4s-1.53-4.14-1.53-6.7s0.5-4.78,1.51-6.68&#10;&#9;&#9;&#9;&#9;&#9;c1.01-1.9,2.41-3.35,4.22-4.35s3.86-1.51,6.18-1.51c2.35,0,4.38,0.5,6.11,1.51c1.73,1.01,3.05,2.35,3.95,4.02&#10;&#9;&#9;&#9;&#9;&#9;c0.9,1.67,1.35,3.47,1.35,5.39C568.04,694.97,568.01,695.79,567.95,696.33z M564.86,689.15c-0.86-1.5-2.02-2.62-3.5-3.36&#10;&#9;&#9;&#9;&#9;&#9;c-1.47-0.74-3.07-1.11-4.78-1.11c-1.71,0-3.3,0.37-4.76,1.11c-1.46,0.74-2.65,1.86-3.56,3.36c-0.92,1.5-1.41,3.34-1.47,5.51&#10;&#9;&#9;&#9;&#9;&#9;h19.22C566.1,692.49,565.72,690.66,564.86,689.15z"   class="st1"/>
				<path d="M610.01,685.48c1.78,1.79,2.66,4.45,2.66,7.96v14.35h-1.99v-14.21c0-2.92-0.7-5.15-2.1-6.7&#10;&#9;&#9;&#9;&#9;&#9;c-1.4-1.55-3.32-2.32-5.75-2.32c-2.53,0-4.56,0.87-6.09,2.62c-1.53,1.75-2.3,4.27-2.3,7.58v13.04h-1.99v-14.21&#10;&#9;&#9;&#9;&#9;&#9;c0-2.92-0.7-5.15-2.1-6.7c-1.4-1.55-3.32-2.32-5.75-2.32c-2.53,0-4.56,0.87-6.09,2.62c-1.53,1.75-2.3,4.27-2.3,7.58v13.04h-2.03&#10;&#9;&#9;&#9;&#9;&#9;v-24.5h2.03v5.32c0.69-1.92,1.81-3.38,3.36-4.35c1.55-0.98,3.33-1.47,5.35-1.47c2.23,0,4.14,0.58,5.75,1.74&#10;&#9;&#9;&#9;&#9;&#9;c1.61,1.16,2.71,2.87,3.32,5.12c0.57-2.26,1.68-3.96,3.34-5.12c1.65-1.16,3.59-1.74,5.82-1.74&#10;&#9;&#9;&#9;&#9;&#9;C605.94,682.79,608.23,683.69,610.01,685.48z"   class="st1"/>
				<path d="M624.49,706.62c-1.84-1.02-3.27-2.49-4.31-4.4s-1.56-4.14-1.56-6.7c0-2.53,0.53-4.75,1.58-6.66&#10;&#9;&#9;&#9;&#9;&#9;c1.05-1.91,2.5-3.37,4.35-4.38s3.92-1.51,6.21-1.51c2.28,0,4.35,0.5,6.18,1.51c1.84,1.01,3.27,2.46,4.31,4.35&#10;&#9;&#9;&#9;&#9;&#9;c1.04,1.9,1.56,4.12,1.56,6.68s-0.53,4.79-1.58,6.7c-1.05,1.91-2.51,3.38-4.35,4.4c-1.85,1.02-3.92,1.53-6.21,1.53&#10;&#9;&#9;&#9;&#9;&#9;C628.39,708.15,626.32,707.64,624.49,706.62z M635.66,705.15c1.55-0.8,2.79-2.01,3.72-3.63c0.93-1.62,1.4-3.62,1.4-6&#10;&#9;&#9;&#9;&#9;&#9;c0-2.35-0.47-4.33-1.4-5.96c-0.93-1.62-2.17-2.83-3.7-3.63c-1.54-0.8-3.19-1.2-4.96-1.2c-1.78,0-3.42,0.4-4.94,1.2&#10;&#9;&#9;&#9;&#9;&#9;c-1.52,0.8-2.75,2.01-3.68,3.63c-0.93,1.62-1.4,3.61-1.4,5.96c0,2.38,0.46,4.38,1.38,6c0.92,1.62,2.14,2.84,3.66,3.63&#10;&#9;&#9;&#9;&#9;&#9;c1.52,0.8,3.17,1.2,4.94,1.2S634.11,705.95,635.66,705.15z"   class="st1"/>
				<path d="M654.23,684.21c1.53-0.95,3.49-1.42,5.87-1.42v2.12h-0.68c-2.41,0-4.41,0.68-6,2.05c-1.59,1.37-2.39,3.6-2.39,6.7v14.12&#10;&#9;&#9;&#9;&#9;&#9;h-2.03v-24.5h2.03v5.05C651.62,686.54,652.69,685.16,654.23,684.21z"   class="st1"/>
				<path d="M664.6,677.35c-0.33-0.32-0.5-0.74-0.5-1.29c0-0.51,0.16-0.93,0.5-1.26c0.33-0.33,0.74-0.5,1.22-0.5&#10;&#9;&#9;&#9;&#9;&#9;c0.48,0,0.89,0.17,1.22,0.5c0.33,0.33,0.5,0.75,0.5,1.26c0,0.54-0.17,0.97-0.5,1.29c-0.33,0.32-0.74,0.47-1.22,0.47&#10;&#9;&#9;&#9;&#9;&#9;C665.34,677.83,664.93,677.67,664.6,677.35z M666.82,683.29v24.5h-2.03v-24.5H666.82z"   class="st1"/>
				<path d="M696.24,696.33h-21.16c0.06,2.2,0.54,4.05,1.44,5.55c0.9,1.5,2.09,2.63,3.56,3.38c1.47,0.75,3.08,1.13,4.83,1.13&#10;&#9;&#9;&#9;&#9;&#9;c2.41,0,4.42-0.59,6.05-1.78c1.62-1.19,2.65-2.81,3.07-4.85h2.12c-0.48,2.5-1.71,4.52-3.7,6.07c-1.99,1.55-4.5,2.32-7.54,2.32&#10;&#9;&#9;&#9;&#9;&#9;c-2.29,0-4.33-0.51-6.14-1.53c-1.8-1.02-3.22-2.49-4.24-4.4s-1.53-4.14-1.53-6.7s0.5-4.78,1.51-6.68&#10;&#9;&#9;&#9;&#9;&#9;c1.01-1.9,2.41-3.35,4.22-4.35c1.81-1.01,3.86-1.51,6.18-1.51c2.35,0,4.38,0.5,6.11,1.51c1.73,1.01,3.05,2.35,3.95,4.02&#10;&#9;&#9;&#9;&#9;&#9;s1.35,3.47,1.35,5.39C696.33,694.97,696.3,695.79,696.24,696.33z M693.14,689.15c-0.86-1.5-2.02-2.62-3.5-3.36&#10;&#9;&#9;&#9;&#9;&#9;c-1.47-0.74-3.07-1.11-4.78-1.11s-3.3,0.37-4.76,1.11c-1.46,0.74-2.65,1.86-3.56,3.36c-0.92,1.5-1.41,3.34-1.47,5.51h19.22&#10;&#9;&#9;&#9;&#9;&#9;C694.39,692.49,694,690.66,693.14,689.15z"   class="st1"/>
				<path d="M703.93,706.35c-1.73-1.2-2.7-2.92-2.91-5.14h2.08c0.15,1.59,0.88,2.86,2.19,3.79c1.31,0.93,3.09,1.4,5.35,1.4&#10;&#9;&#9;&#9;&#9;&#9;c1.87,0,3.35-0.47,4.44-1.42c1.1-0.95,1.65-2.11,1.65-3.5c0-0.96-0.29-1.75-0.88-2.37c-0.59-0.62-1.32-1.09-2.19-1.42&#10;&#9;&#9;&#9;&#9;&#9;c-0.87-0.33-2.06-0.69-3.56-1.08c-1.81-0.48-3.26-0.96-4.38-1.42c-1.11-0.47-2.06-1.17-2.84-2.1c-0.78-0.93-1.17-2.18-1.17-3.75&#10;&#9;&#9;&#9;&#9;&#9;c0-1.14,0.35-2.2,1.04-3.18c0.69-0.98,1.65-1.75,2.89-2.32c1.23-0.57,2.63-0.86,4.2-0.86c2.56,0,4.63,0.64,6.2,1.92&#10;&#9;&#9;&#9;&#9;&#9;c1.58,1.28,2.43,3.05,2.55,5.3h-2.03c-0.09-1.62-0.72-2.95-1.9-3.97c-1.17-1.02-2.8-1.53-4.87-1.53c-1.75,0-3.19,0.45-4.33,1.35&#10;&#9;&#9;&#9;&#9;&#9;c-1.14,0.9-1.71,2-1.71,3.29c0,1.14,0.32,2.07,0.97,2.78c0.65,0.71,1.44,1.25,2.39,1.62c0.95,0.38,2.2,0.77,3.77,1.2&#10;&#9;&#9;&#9;&#9;&#9;c1.71,0.45,3.09,0.9,4.13,1.33c1.04,0.44,1.92,1.07,2.64,1.9c0.72,0.83,1.08,1.93,1.08,3.32c0,1.26-0.35,2.41-1.04,3.43&#10;&#9;&#9;&#9;&#9;&#9;c-0.69,1.02-1.65,1.82-2.89,2.39c-1.23,0.57-2.62,0.86-4.15,0.86C707.89,708.15,705.66,707.55,703.93,706.35z"   class="st1"/>
				<path d="M742.22,706.62c-1.84-1.02-3.27-2.49-4.31-4.4s-1.56-4.14-1.56-6.7c0-2.53,0.53-4.75,1.58-6.66&#10;&#9;&#9;&#9;&#9;&#9;c1.05-1.91,2.5-3.37,4.35-4.38s3.92-1.51,6.2-1.51c2.29,0,4.35,0.5,6.18,1.51s3.27,2.46,4.31,4.35c1.04,1.9,1.56,4.12,1.56,6.68&#10;&#9;&#9;&#9;&#9;&#9;s-0.53,4.79-1.58,6.7c-1.05,1.91-2.51,3.38-4.35,4.4c-1.85,1.02-3.92,1.53-6.21,1.53C746.11,708.15,744.05,707.64,742.22,706.62&#10;&#9;&#9;&#9;&#9;&#9;z M753.38,705.15c1.55-0.8,2.79-2.01,3.72-3.63c0.93-1.62,1.4-3.62,1.4-6c0-2.35-0.47-4.33-1.4-5.96&#10;&#9;&#9;&#9;&#9;&#9;c-0.93-1.62-2.17-2.83-3.7-3.63c-1.53-0.8-3.19-1.2-4.96-1.2c-1.78,0-3.42,0.4-4.94,1.2s-2.75,2.01-3.68,3.63&#10;&#9;&#9;&#9;&#9;&#9;c-0.93,1.62-1.4,3.61-1.4,5.96c0,2.38,0.46,4.38,1.38,6c0.92,1.62,2.14,2.84,3.66,3.63c1.52,0.8,3.16,1.2,4.94,1.2&#10;&#9;&#9;&#9;&#9;&#9;C750.17,706.35,751.83,705.95,753.38,705.15z"   class="st1"/>
				<path d="M776.06,685.09h-6.36v22.7h-2.03v-22.7h-3.7v-1.8h3.7v-1.72c0-2.56,0.65-4.46,1.94-5.71c1.29-1.25,3.41-1.87,6.36-1.87&#10;&#9;&#9;&#9;&#9;&#9;v1.8c-2.35,0-3.98,0.45-4.9,1.35c-0.92,0.9-1.38,2.38-1.38,4.42v1.72h6.36V685.09z"   class="st1"/>
				<path d="M794.22,688.88c1.01-1.9,2.41-3.35,4.2-4.38c1.79-1.02,3.83-1.53,6.11-1.53c2.59,0,4.78,0.63,6.59,1.9&#10;&#9;&#9;&#9;&#9;&#9;c1.81,1.26,3.07,2.87,3.79,4.83v-6.41h2.03v24.5h-2.03v-6.45c-0.72,1.99-1.99,3.62-3.81,4.9c-1.82,1.28-4.01,1.92-6.57,1.92&#10;&#9;&#9;&#9;&#9;&#9;c-2.29,0-4.32-0.52-6.11-1.56c-1.79-1.04-3.19-2.51-4.2-4.42c-1.01-1.91-1.51-4.13-1.51-6.65S793.21,690.78,794.22,688.88z&#10;&#9;&#9;&#9;&#9;&#9; M813.58,689.85c-0.89-1.64-2.1-2.9-3.63-3.79c-1.53-0.89-3.25-1.33-5.14-1.33c-1.99,0-3.73,0.43-5.23,1.29&#10;&#9;&#9;&#9;&#9;&#9;c-1.51,0.86-2.68,2.1-3.52,3.72c-0.84,1.62-1.26,3.55-1.26,5.78s0.42,4.15,1.26,5.78c0.84,1.62,2.02,2.87,3.54,3.75&#10;&#9;&#9;&#9;&#9;&#9;s3.26,1.31,5.21,1.31c1.9,0,3.62-0.44,5.17-1.33c1.55-0.89,2.76-2.15,3.63-3.79c0.87-1.64,1.31-3.54,1.31-5.71&#10;&#9;&#9;&#9;&#9;&#9;C814.91,693.38,814.47,691.49,813.58,689.85z"   class="st1"/>
				<path d="M857.78,683.29v24.5h-2.03v-5.32c-0.69,1.87-1.84,3.29-3.45,4.26c-1.61,0.98-3.45,1.47-5.53,1.47&#10;&#9;&#9;&#9;&#9;&#9;c-2.92,0-5.3-0.89-7.15-2.68c-1.85-1.79-2.78-4.44-2.78-7.96v-14.26h1.99v14.12c0,2.92,0.74,5.15,2.21,6.7&#10;&#9;&#9;&#9;&#9;&#9;c1.47,1.55,3.48,2.32,6,2.32c2.65,0,4.76-0.84,6.34-2.53c1.58-1.68,2.37-4.18,2.37-7.49v-13.13H857.78z"   class="st1"/>
				<path d="M883.36,685.48c1.83,1.79,2.75,4.45,2.75,7.96v14.35h-1.98v-14.21c0-2.92-0.74-5.15-2.21-6.7&#10;&#9;&#9;&#9;&#9;&#9;c-1.47-1.55-3.48-2.32-6-2.32c-2.65,0-4.76,0.84-6.34,2.53c-1.58,1.68-2.37,4.18-2.37,7.49v13.22h-2.03v-24.5h2.03v5.19&#10;&#9;&#9;&#9;&#9;&#9;c0.69-1.83,1.84-3.24,3.45-4.22c1.61-0.98,3.47-1.47,5.57-1.47C879.15,682.79,881.53,683.69,883.36,685.48z"   class="st1"/>
				<path d="M893.11,677.35c-0.33-0.32-0.5-0.74-0.5-1.29c0-0.51,0.16-0.93,0.5-1.26c0.33-0.33,0.74-0.5,1.22-0.5&#10;&#9;&#9;&#9;&#9;&#9;c0.48,0,0.89,0.17,1.22,0.5c0.33,0.33,0.5,0.75,0.5,1.26c0,0.54-0.17,0.97-0.5,1.29c-0.33,0.32-0.74,0.47-1.22,0.47&#10;&#9;&#9;&#9;&#9;&#9;C893.84,677.83,893.44,677.67,893.11,677.35z M895.32,683.29v24.5h-2.03v-24.5H895.32z"   class="st1"/>
				<path d="M903.01,688.88c1.01-1.9,2.41-3.35,4.2-4.38c1.79-1.02,3.83-1.53,6.11-1.53c2.59,0,4.79,0.63,6.61,1.9&#10;&#9;&#9;&#9;&#9;&#9;c1.82,1.26,3.08,2.87,3.77,4.83v-6.41h2.03v36.05h-2.03v-17.96c-0.69,1.96-1.96,3.57-3.79,4.85c-1.84,1.28-4.05,1.92-6.63,1.92&#10;&#9;&#9;&#9;&#9;&#9;c-2.26,0-4.28-0.52-6.07-1.56c-1.79-1.04-3.19-2.51-4.2-4.42c-1.01-1.91-1.51-4.13-1.51-6.65S902,690.78,903.01,688.88z&#10;&#9;&#9;&#9;&#9;&#9; M922.37,689.85c-0.89-1.64-2.1-2.9-3.63-3.79c-1.53-0.89-3.25-1.33-5.14-1.33c-1.99,0-3.73,0.43-5.23,1.29&#10;&#9;&#9;&#9;&#9;&#9;c-1.51,0.86-2.68,2.1-3.52,3.72c-0.84,1.62-1.26,3.55-1.26,5.78s0.42,4.15,1.26,5.78c0.84,1.62,2.02,2.87,3.54,3.75&#10;&#9;&#9;&#9;&#9;&#9;c1.52,0.87,3.26,1.31,5.21,1.31c1.9,0,3.62-0.44,5.17-1.33c1.55-0.89,2.76-2.15,3.63-3.79c0.87-1.64,1.31-3.54,1.31-5.71&#10;&#9;&#9;&#9;&#9;&#9;C923.7,693.38,923.26,691.49,922.37,689.85z"   class="st1"/>
				<path d="M953.84,683.29v24.5h-2.03v-5.32c-0.69,1.87-1.84,3.29-3.45,4.26c-1.61,0.98-3.45,1.47-5.53,1.47&#10;&#9;&#9;&#9;&#9;&#9;c-2.92,0-5.3-0.89-7.15-2.68c-1.85-1.79-2.78-4.44-2.78-7.96v-14.26h1.99v14.12c0,2.92,0.74,5.15,2.21,6.7&#10;&#9;&#9;&#9;&#9;&#9;c1.47,1.55,3.48,2.32,6,2.32c2.65,0,4.76-0.84,6.34-2.53c1.58-1.68,2.37-4.18,2.37-7.49v-13.13H953.84z"   class="st1"/>
				<path d="M983.22,696.33h-21.16c0.06,2.2,0.54,4.05,1.44,5.55c0.9,1.5,2.09,2.63,3.56,3.38c1.47,0.75,3.08,1.13,4.83,1.13&#10;&#9;&#9;&#9;&#9;&#9;c2.41,0,4.42-0.59,6.05-1.78c1.62-1.19,2.65-2.81,3.07-4.85h2.12c-0.48,2.5-1.71,4.52-3.7,6.07c-1.99,1.55-4.5,2.32-7.54,2.32&#10;&#9;&#9;&#9;&#9;&#9;c-2.29,0-4.33-0.51-6.14-1.53c-1.8-1.02-3.22-2.49-4.24-4.4s-1.53-4.14-1.53-6.7s0.5-4.78,1.51-6.68&#10;&#9;&#9;&#9;&#9;&#9;c1.01-1.9,2.41-3.35,4.22-4.35c1.81-1.01,3.86-1.51,6.18-1.51c2.35,0,4.38,0.5,6.11,1.51c1.73,1.01,3.05,2.35,3.95,4.02&#10;&#9;&#9;&#9;&#9;&#9;s1.35,3.47,1.35,5.39C983.31,694.97,983.28,695.79,983.22,696.33z M980.13,689.15c-0.86-1.5-2.02-2.62-3.5-3.36&#10;&#9;&#9;&#9;&#9;&#9;c-1.47-0.74-3.07-1.11-4.78-1.11s-3.3,0.37-4.76,1.11c-1.46,0.74-2.65,1.86-3.56,3.36c-0.92,1.5-1.41,3.34-1.47,5.51h19.22&#10;&#9;&#9;&#9;&#9;&#9;C981.37,692.49,980.98,690.66,980.13,689.15z"   class="st1"/>
				<path d="M1011.51,685.09h-6.36v22.7h-2.03v-22.7h-3.7v-1.8h3.7v-1.72c0-2.56,0.65-4.46,1.94-5.71c1.29-1.25,3.41-1.87,6.36-1.87&#10;&#9;&#9;&#9;&#9;&#9;v1.8c-2.35,0-3.98,0.45-4.9,1.35c-0.92,0.9-1.38,2.38-1.38,4.42v1.72h6.36V685.09z"   class="st1"/>
				<path d="M1016.95,688.88c1.01-1.9,2.41-3.35,4.2-4.38c1.79-1.02,3.83-1.53,6.11-1.53c2.59,0,4.78,0.63,6.59,1.9&#10;&#9;&#9;&#9;&#9;&#9;c1.81,1.26,3.07,2.87,3.79,4.83v-6.41h2.03v24.5h-2.03v-6.45c-0.72,1.99-1.99,3.62-3.81,4.9c-1.82,1.28-4.01,1.92-6.57,1.92&#10;&#9;&#9;&#9;&#9;&#9;c-2.29,0-4.32-0.52-6.11-1.56c-1.79-1.04-3.19-2.51-4.2-4.42c-1.01-1.91-1.51-4.13-1.51-6.65S1015.94,690.78,1016.95,688.88z&#10;&#9;&#9;&#9;&#9;&#9; M1036.3,689.85c-0.89-1.64-2.1-2.9-3.63-3.79c-1.53-0.89-3.25-1.33-5.14-1.33c-1.99,0-3.73,0.43-5.23,1.29&#10;&#9;&#9;&#9;&#9;&#9;c-1.51,0.86-2.68,2.1-3.52,3.72c-0.84,1.62-1.26,3.55-1.26,5.78s0.42,4.15,1.26,5.78c0.84,1.62,2.02,2.87,3.54,3.75&#10;&#9;&#9;&#9;&#9;&#9;s3.26,1.31,5.21,1.31c1.9,0,3.62-0.44,5.17-1.33c1.55-0.89,2.76-2.15,3.63-3.79c0.87-1.64,1.31-3.54,1.31-5.71&#10;&#9;&#9;&#9;&#9;&#9;C1037.64,693.38,1037.19,691.49,1036.3,689.85z"   class="st1"/>
				<path d="M1052.3,684.21c1.53-0.95,3.49-1.42,5.87-1.42v2.12h-0.68c-2.41,0-4.41,0.68-6,2.05c-1.59,1.37-2.39,3.6-2.39,6.7v14.12&#10;&#9;&#9;&#9;&#9;&#9;h-2.03v-24.5h2.03v5.05C1049.7,686.54,1050.77,685.16,1052.3,684.21z"   class="st1"/>
				<path d="M1084.83,696.33h-21.16c0.06,2.2,0.54,4.05,1.44,5.55c0.9,1.5,2.09,2.63,3.56,3.38c1.47,0.75,3.08,1.13,4.83,1.13&#10;&#9;&#9;&#9;&#9;&#9;c2.41,0,4.42-0.59,6.05-1.78c1.62-1.19,2.65-2.81,3.07-4.85h2.12c-0.48,2.5-1.71,4.52-3.7,6.07c-1.99,1.55-4.5,2.32-7.54,2.32&#10;&#9;&#9;&#9;&#9;&#9;c-2.29,0-4.33-0.51-6.14-1.53c-1.8-1.02-3.22-2.49-4.24-4.4c-1.02-1.91-1.53-4.14-1.53-6.7s0.5-4.78,1.51-6.68&#10;&#9;&#9;&#9;&#9;&#9;c1.01-1.9,2.41-3.35,4.22-4.35c1.81-1.01,3.86-1.51,6.18-1.51c2.35,0,4.38,0.5,6.11,1.51c1.73,1.01,3.05,2.35,3.95,4.02&#10;&#9;&#9;&#9;&#9;&#9;c0.9,1.67,1.35,3.47,1.35,5.39C1084.92,694.97,1084.89,695.79,1084.83,696.33z M1081.74,689.15c-0.86-1.5-2.02-2.62-3.5-3.36&#10;&#9;&#9;&#9;&#9;&#9;c-1.47-0.74-3.07-1.11-4.78-1.11s-3.3,0.37-4.76,1.11c-1.46,0.74-2.65,1.86-3.56,3.36c-0.92,1.5-1.41,3.34-1.47,5.51h19.22&#10;&#9;&#9;&#9;&#9;&#9;C1082.98,692.49,1082.6,690.66,1081.74,689.15z"   class="st1"/>
				<path d="M1123.1,683.29l-7.72,24.5h-1.94l-7.81-21.7l-7.85,21.7h-1.94l-7.72-24.5h2.12l6.59,22.2l7.85-22.2h1.94l7.81,22.11&#10;&#9;&#9;&#9;&#9;&#9;l6.59-22.11H1123.1z"   class="st1"/>
				<path d="M1149.54,696.33h-21.16c0.06,2.2,0.54,4.05,1.44,5.55c0.9,1.5,2.09,2.63,3.56,3.38c1.47,0.75,3.08,1.13,4.83,1.13&#10;&#9;&#9;&#9;&#9;&#9;c2.41,0,4.42-0.59,6.05-1.78c1.62-1.19,2.65-2.81,3.07-4.85h2.12c-0.48,2.5-1.71,4.52-3.7,6.07c-1.99,1.55-4.5,2.32-7.54,2.32&#10;&#9;&#9;&#9;&#9;&#9;c-2.29,0-4.33-0.51-6.14-1.53c-1.8-1.02-3.22-2.49-4.24-4.4c-1.02-1.91-1.53-4.14-1.53-6.7s0.5-4.78,1.51-6.68&#10;&#9;&#9;&#9;&#9;&#9;c1.01-1.9,2.41-3.35,4.22-4.35c1.81-1.01,3.86-1.51,6.18-1.51c2.35,0,4.38,0.5,6.11,1.51c1.73,1.01,3.05,2.35,3.95,4.02&#10;&#9;&#9;&#9;&#9;&#9;c0.9,1.67,1.35,3.47,1.35,5.39C1149.63,694.97,1149.6,695.79,1149.54,696.33z M1146.45,689.15c-0.86-1.5-2.02-2.62-3.5-3.36&#10;&#9;&#9;&#9;&#9;&#9;c-1.47-0.74-3.07-1.11-4.78-1.11s-3.3,0.37-4.76,1.11c-1.46,0.74-2.65,1.86-3.56,3.36c-0.92,1.5-1.41,3.34-1.47,5.51h19.22&#10;&#9;&#9;&#9;&#9;&#9;C1147.69,692.49,1147.31,690.66,1146.45,689.15z"   class="st1"/>
				<path d="M1157.8,674.4v33.39h-2.03V674.4H1157.8z"    class="st1"/>
				<path d="M1167.27,674.4v33.39h-2.03V674.4H1167.27z"   class="st1"/>
			</g>
		</g>
		<g>
			<rect height="2" width="834.55" y="643.46" x="332.73"   class="st1"/>
		</g>
	</g>
</g>
<g>
	<path d="M1964.3,358.53c0,0,8.62-13.8,8.62-13.8l28.45,16.19c0,0,63.53,32.02,104.46-0.95&#10;&#9;&#9;c9.74-7.85,19.23-15.82,28.52-24.22c12.19-11.01,20.67-24.49,35.78-31.96c27.92-13.81,57.62-6.48,78.36,16.02&#10;&#9;&#9;c25.65,27.81,34.35,71.02,36.53,107.69c0,0,6.82,114.61,50.48,188.97c0,0-46.39-52.53-59.35-191.7c0,0-2.73-60.72-39.57-99.6&#10;&#9;&#9;c-10.87-11.47-26.76-17.08-42.42-14.28c-16.88,3.01-32.75,14.51-42.97,27.81c-35.96,46.77-87.9,63.58-143.15,39.68&#10;&#9;&#9;c0,0,26.61,47.75,30.7,98.92c9.21,48.52,26.8,100,55.83,140.2c19.2,26.58,45.99,49.44,76.2,62.53&#10;&#9;&#9;c36.51,15.81,77.73,16.42,116.29,8.76l100.97-27.29c0,0,106.42-25.24,115.98-27.29c0,0-123.48,38.89-123.48,38.89&#10;&#9;&#9;c-44.35,13.97-95.25,30.93-142.54,30.06c-44.78-0.82-89.81-16.45-123.54-46.22c-11.82-10.43-24.07-20.95-33.59-33.6&#10;&#9;&#9;c-26.6-35.34-44.24-76.25-50.61-119.79c-4.66-31.88-12.65-63.93-26.56-93.09c-4.87-10.22-10.53-20.11-17.3-29.19&#10;&#9;&#9;C1984.85,379.21,1964.94,357.5,1964.3,358.53z" class="st1"/>
	<path d="M2280.17,610.9c27.19,12.34,58.27,20.01,88.05,21.16c13.11,0.51,26.34-0.58,39.04-3.95&#10;&#9;&#9;c12.08-3.21,23.01-9.34,35.03-12.77c21.76-6.22,45.29-7.24,67.43-2.48c18.25,3.93,43.52,13.46,48.78,33.82&#10;&#9;&#9;c-0.78-3.03-7.65-6.67-9.96-8.09c-10.58-6.52-22.92-9.91-35.15-11.53c-10.84-1.44-21.84-1.48-32.74-0.64&#10;&#9;&#9;c-12.84,0.99-24.48,2.17-36.4,7.13c-20.41,8.49-41.18,14.38-63.43,14.69c-16.24,0.23-32.46-2.28-47.86-7.42&#10;&#9;&#9;c-9.03-3.01-17.76-6.91-26.08-11.54c-4.69-2.61-9.24-5.45-13.66-8.49C2289.07,617.92,2284.69,612.96,2280.17,610.9z" class="st1"/>
	<path d="M2301.4,431.6c0,0,56.56,62.01,56.62,62.08c9.91,10.87,17.91,22,29.94,31.09&#10;&#9;&#9;c25.64,19.38,55.5,26.38,87.11,26.75c14.18,0.17,27.72,5.34,40.69,11.15c35.21,15.8,65.77,45.16,58.98,86.92&#10;&#9;&#9;c-0.31,1.93-0.7,3.86-1.15,5.77c0,0,2.05,41.08-51.17,27.36c0,0-38.26-22.59-58.67-26c0,0,40.46,4.91,53.89,16.37&#10;&#9;&#9;c0,0,32.4,17.51,44.34-17.06c0,0,21.53-51.25-65.49-84.59c0,0-37.52-9.55-54.58-8.87c0,0-34.79-1.36-66.17-33.43&#10;&#9;&#9;C2375.76,529.15,2304.81,452.75,2301.4,431.6z" class="st1"/>
	<path d="M2294.09,555.33l-49.62-35.69c0,0-5.87-9.04,6.11-7.82l29.59,3.42c0,0-19.42-23.95-46.01-11.49&#10;&#9;&#9;c0,0-18.77,20.78,13.25,37.64C2279.42,558.27,2294.09,555.33,2294.09,555.33z" class="st1"/>
</g>
</svg>