<svg xmlns="http://www.w3.org/2000/svg" version="1.1" viewBox="891.6666666666666 583.5200000000001 1345.8333333333333 929.464" style="max-height: 500px" width="1345.8333333333333" height="929.464">
<path transform="translate(1502.519775390625,650.46923828125)" fill="#9d8869" d="M0 0 C11.15530302 9.5252281 20.69226126 19.81772111 29.48022461 31.53076172 C30.12241943 32.37380859 30.12241943 32.37380859 30.77758789 33.23388672 C75.00728671 91.50340913 86.50253601 168.02917708 92.22763062 238.93127441 C97.98083627 309.95108297 108.90415706 380.45069524 126.48022461 449.53076172 C126.68282898 450.32808716 126.88543335 451.1254126 127.09417725 451.94689941 C140.81897942 505.78007732 158.65655589 558.13960987 183.48022461 607.90576172 C183.7897406 608.52705963 184.09925659 609.14835754 184.41815186 609.78848267 C187.81779578 616.58493009 191.3410779 623.17130367 195.51147461 629.52929688 C196.48022461 631.53076172 196.48022461 631.53076172 195.48022461 634.53076172 C178.72342235 613.88133947 166.01695121 590.3914981 154.44995117 566.52783203 C153.78720912 565.16297051 153.11966527 563.80043292 152.44799805 562.43994141 C140.99006172 539.22061656 131.82366935 515.02055264 123.48022461 490.53076172 C123.26043945 489.88578735 123.0406543 489.24081299 122.81420898 488.57629395 C94.90010153 406.45793714 79.69272253 320.36741399 71.68725586 234.15576172 C65.37226669 166.22126627 45.8652357 93.36445784 0.48022461 40.53076172 C-0.4531314 39.40403839 -1.38532789 38.27635398 -2.31665039 37.14794922 C-20.14117911 15.71839524 -42.38900049 1.15942433 -70.51977539 -2.46923828 C-103.94864648 -4.37592759 -134.8932172 7.30290768 -160.32836914 28.91748047 C-162.00001396 30.41610878 -163.65718875 31.93108722 -165.29711914 33.46435547 C-167.29516205 35.32193842 -169.35104736 37.04897423 -171.45727539 38.78076172 C-178.72708764 45.13089892 -184.63007045 53.04780914 -190.49780273 60.67456055 C-197.00817263 69.12041363 -204.09718603 76.88001899 -211.51977539 84.53076172 C-212.18235352 85.21525391 -212.84493164 85.89974609 -213.52758789 86.60498047 C-221.46488039 94.76862161 -229.42637051 102.64426959 -238.51977539 109.53076172 C-239.18283691 110.04316406 -239.84589844 110.55556641 -240.52905273 111.08349609 C-281.7884401 142.90102321 -330.09258422 161.02481245 -382.33227539 160.90576172 C-383.27586914 160.90488556 -384.21946289 160.9040094 -385.19165039 160.90310669 C-400.94922198 160.85502879 -416.07677373 159.90793975 -431.51977539 156.53076172 C-432.62627441 156.28938477 -433.73277344 156.04800781 -434.87280273 155.79931641 C-451.28505056 152.0952037 -466.92658433 146.81394464 -482.51977539 140.53076172 C-482.03250977 141.53107422 -481.54524414 142.53138672 -481.04321289 143.56201172 C-454.18993371 199.20055396 -430.76659442 259.10104116 -423.49243164 320.87060547 C-417.12466015 374.75353141 -402.50662999 427.42590823 -384.51977539 478.53076172 C-384.08955078 479.75666016 -383.65932617 480.98255859 -383.21606445 482.24560547 C-374.3161189 507.39611516 -363.69399228 531.75759892 -351.91625977 555.68652344 C-350.60929127 558.34844355 -349.32025605 561.01827338 -348.03540039 563.69091797 C-335.08916253 590.38791744 -319.26289455 615.77175986 -301.51977539 639.53076172 C-301.06860352 640.13645996 -300.61743164 640.7421582 -300.15258789 641.36621094 C-287.66918045 658.05331126 -273.76621023 673.47199712 -259.0402832 688.19555664 C-257.51490826 689.72313588 -255.99776867 691.25859754 -254.48071289 692.79443359 C-248.15273415 699.15855036 -241.5601813 704.94961749 -234.51977539 710.53076172 C-233.17917885 711.63869145 -231.84160288 712.75029347 -230.50805664 713.86669922 C-221.52517973 721.3198616 -212.27935594 728.1321862 -202.51977539 734.53076172 C-201.80515137 735.00336426 -201.09052734 735.4759668 -200.35424805 735.96289062 C-143.51841612 773.38283273 -79.23342182 791.49855538 -11.51977539 793.53076172 C-10.78597656 793.55412598 -10.05217773 793.57749023 -9.29614258 793.6015625 C13.09967188 794.21310493 35.75791397 792.44311837 57.98022461 789.71826172 C59.15609131 789.57743164 60.33195801 789.43660156 61.54345703 789.29150391 C85.22734635 786.20810838 108.16339476 780.4600047 131.13827133 774.11371231 C135.1627159 773.00456118 139.190362 771.90715758 143.21777344 770.80883789 C149.10212357 769.20324026 154.98563723 767.59464692 160.8680582 765.98199558 C171.42431838 763.0883983 181.98727533 760.22018536 192.55444336 757.36669922 C193.32672649 757.15809454 194.09900963 756.94948986 194.89469528 756.73456383 C202.66996622 754.63452028 210.44602947 752.53742674 218.22278023 750.44287014 C222.09915321 749.39866622 225.97528803 748.3535805 229.85131836 747.30810547 C230.98737455 747.00176398 230.98737455 747.00176398 232.14638138 746.68923378 C242.19972289 743.97683921 252.2374029 741.21454821 262.26538086 738.40966797 C308.62627266 725.49842156 355.48587708 714.70520505 402.34400368 703.76853657 C418.05961753 700.10035749 433.7691858 696.40695077 449.47631836 692.70263672 C451.82987568 692.14773354 454.18343705 691.59284754 456.53700256 691.03797913 C459.99462699 690.22279929 463.45224833 689.40760634 466.90985584 688.59235477 C477.60816881 686.06992796 488.30677118 683.54873924 499.00653267 681.03246307 C500.87506793 680.59290555 502.74353497 680.15305784 504.61192131 679.71286774 C508.84845557 678.71480854 513.08575584 677.7203614 517.32519531 676.73471069 C521.05677192 675.86713489 524.78303122 674.97911958 528.50830078 674.08486938 C530.51123868 673.61185235 532.51424812 673.1391381 534.51733398 672.66674805 C535.45370949 672.43847919 536.39008499 672.21021032 537.35483551 671.97502422 C538.22810234 671.77116006 539.10136917 671.56729589 540.00109863 671.35725403 C540.77075706 671.17324948 541.5404155 670.98924494 542.33339691 670.7996645 C544.66584847 670.50751124 546.25711661 670.81776672 548.48022461 671.53076172 C534.05169984 676.39192146 519.59226763 681.1266478 505.05575562 685.65460205 C499.5576637 687.36744109 494.06214915 689.08852707 488.56616211 690.80810547 C487.37542587 691.18044312 486.18468964 691.55278076 484.95787048 691.93640137 C470.12877443 696.57524086 455.31109854 701.25031816 440.49256134 705.92275238 C433.42613775 708.15076023 426.35946852 710.37798884 419.29272461 712.60498047 C418.50823566 712.85220604 417.72374672 713.09943161 416.91548538 713.35414886 C405.58454839 716.92478782 394.25193284 720.49005196 382.91772461 724.05029297 C382.20402143 724.27448977 381.49031826 724.49868656 380.75498772 724.7296772 C374.28928746 726.76072667 367.82350929 728.79152783 361.35745239 730.82144165 C344.61963032 736.07618239 327.88708136 741.34704053 311.16381836 746.64794922 C124.48859119 805.81313702 124.48859119 805.81313702 -189.51977539 770.53076172 C-217.60066994 755.95349169 -243.59513336 738.12574507 -266.97680664 716.78857422 C-269.65754763 714.40843859 -272.41481673 712.15344331 -275.20727539 709.90576172 C-278.95308706 706.87544217 -282.42482015 703.76106172 -285.76049805 700.2890625 C-287.40822514 698.64225005 -289.10614597 697.1481287 -290.88696289 695.64794922 C-296.56203478 690.7129343 -301.8495001 685.38706733 -307.16455078 680.07128906 C-308.94487791 678.293144 -310.73305916 676.52316611 -312.52172852 674.75341797 C-319.31713626 667.99167742 -325.62874386 661.10748231 -331.51977539 653.53076172 C-332.0229126 652.89750977 -332.5260498 652.26425781 -333.04443359 651.61181641 C-348.13103249 632.49574151 -361.37996384 611.61353737 -373.51977539 590.53076172 C-374.1361084 589.46946045 -374.1361084 589.46946045 -374.76489258 588.38671875 C-410.39184663 526.79071987 -430.53267661 460.29666037 -441.87011719 390.36993408 C-451.24536233 332.55317334 -464.76549269 275.28177203 -488.51977539 221.53076172 C-489.21973633 219.94352295 -489.21973633 219.94352295 -489.93383789 218.32421875 C-503.95162901 186.76076327 -520.17247438 156.31392067 -544.04956055 131.09814453 C-546.26572446 128.73551213 -548.41754917 126.31548796 -550.58227539 123.90576172 C-555.76898005 118.23852412 -561.15870471 112.78352654 -566.58227539 107.34326172 C-567.42862549 106.49231934 -568.27497559 105.64137695 -569.14697266 104.76464844 C-569.94159912 103.97203613 -570.73622559 103.17942383 -571.55493164 102.36279297 C-572.27044189 101.64841064 -572.98595215 100.93402832 -573.72314453 100.19799805 C-575.42757371 98.4599486 -575.42757371 98.4599486 -577.51977539 97.53076172 C-575.22171671 91.28982291 -571.58815741 85.90072688 -568.08227539 80.28076172 C-567.40100586 79.16701172 -566.71973633 78.05326172 -566.01782227 76.90576172 C-565.35975586 75.84873047 -564.70168945 74.79169922 -564.02368164 73.70263672 C-563.42370361 72.73422852 -562.82372559 71.76582031 -562.20556641 70.76806641 C-560.51977539 68.53076172 -560.51977539 68.53076172 -557.51977539 67.53076172 C-555.08154297 68.57202148 -555.08154297 68.57202148 -552.16430664 70.22216797 C-551.07867432 70.8305249 -549.99304199 71.43888184 -548.87451172 72.06567383 C-547.69363179 72.74130145 -546.5128897 73.41717005 -545.33227539 74.09326172 C-544.11614609 74.77964075 -542.89958791 75.46526042 -541.68261719 76.15014648 C-533.68059274 80.66758714 -525.75330121 85.31052719 -517.83227539 89.96826172 C-463.7859549 121.62352776 -395.6916162 139.3497734 -333.70263672 124.12158203 C-307.67434369 117.29806303 -287.75139072 103.36321457 -267.59790039 86.14404297 C-264.79270219 83.75193903 -261.94514382 81.41620321 -259.08227539 79.09326172 C-249.84256395 71.5641091 -240.80766471 63.78754818 -231.99633789 55.76123047 C-230.63038126 54.5310077 -229.25787636 53.30751426 -227.85888672 52.11499023 C-222.13162833 47.21251576 -216.79000421 41.95372981 -211.47412109 36.61547852 C-209.95984959 35.09584504 -208.44030109 33.58163654 -206.92016602 32.06787109 C-202.1481833 27.29905476 -197.49493311 22.47638414 -193.10107422 17.35229492 C-143.13311603 -40.20690471 -59.337055 -49.41439072 0 0 Z"/>
<path transform="translate(1627,899)" fill="#9d8869" d="M0 0 C3.00874098 1.33803458 4.98385643 2.77584376 7.20703125 5.1953125 C7.78984863 5.82453613 8.37266602 6.45375977 8.97314453 7.10205078 C9.88362549 8.10341064 9.88362549 8.10341064 10.8125 9.125 C11.44269043 9.80933105 12.07288086 10.49366211 12.72216797 11.19873047 C16.26650299 15.05917937 19.75909464 18.95904956 23.1796875 22.9296875 C27.17886135 27.47810412 31.33766708 31.88594391 35.45361328 36.32861328 C41.92126556 43.31906915 48.33318225 50.3586692 54.6953125 57.4453125 C59.09832536 62.32594032 63.55252509 67.15992041 68 72 C78.36190257 83.27660846 78.36190257 83.27660846 83.4375 88.9375 C86.92448097 92.82370598 90.45331985 96.66842807 94 100.5 C98.27974955 105.12352611 102.51758608 109.78092335 106.72265625 114.47265625 C109.29810009 117.33082463 111.89711975 120.16685977 114.5 123 C116.33396672 124.99942069 118.16702662 126.99966818 120 129 C120.78632812 129.85722656 121.57265625 130.71445313 122.3828125 131.59765625 C126.17341591 135.76467847 129.83734772 139.99056925 133.375 144.375 C137.54213184 149.52563324 141.95590727 154.39019284 146.4609375 159.2421875 C148.44487236 161.39704597 150.36156514 163.57543102 152.25 165.8125 C162.9824546 178.07089601 174.74770689 188.54993217 188 198 C188.91918213 198.66225586 188.91918213 198.66225586 189.85693359 199.33789062 C240.82944871 235.75282324 302.27506623 247.04827416 363.64404297 249.33569336 C426.22529364 251.78054829 492.36311154 287.45281755 534.75 332.9375 C561.09585429 363.29465918 575.45822185 400.62425005 573 441 C572.46292587 446.34171027 571.64040349 451.63182245 570.78125 456.9296875 C570.1297003 460.96652962 569.68739662 464.98564245 569.32861328 469.05761719 C567.57158173 488.5155829 561.10248531 505.06681832 546 518 C526.96882329 532.26598317 501.99754013 531.49917921 479.60742188 528.33129883 C477.0596508 527.93792257 474.53192718 527.48490242 472 527 C471.06051514 526.82549316 470.12103027 526.65098633 469.15307617 526.47119141 C460.91794307 524.70328829 454.29289514 521.23331287 447.0625 517 C445.27219609 515.976515 443.47865122 514.95886591 441.68501282 513.9412384 C440.48674001 513.26087219 439.28937576 512.57890323 438.09294128 511.89530945 C406.86684426 494.05581794 373.84847443 479.10055702 339 470 C339 469.67 339 469.34 339 469 C375.66934049 471.43636384 418.58180758 479.88675624 449.625 500.6875 C455.67470988 504.67212094 462.09262993 506.91966266 469 509 C470.21042969 509.37125 470.21042969 509.37125 471.4453125 509.75 C486.57268835 513.54502112 503.0422188 511.78614654 516.5 504 C533.49711701 493.28948791 541.59184597 474.93610251 546 456 C551.77726083 429.20746823 543.52604891 400.56060344 529 378 C523.58524711 370.13801003 517.55726031 362.92760392 511 356 C510.20335938 355.13890625 509.40671875 354.2778125 508.5859375 353.390625 C500.80573124 345.25784142 492.10738355 338.5743859 483 332 C482.38141113 331.55269531 481.76282227 331.10539062 481.12548828 330.64453125 C463.90072598 318.34450873 444.6708318 308.9390505 425.48144531 300.13964844 C423.98944616 299.45442096 422.50066648 298.76202291 421.01855469 298.05566406 C386.44452942 281.62961624 336.07261169 275.4569268 298.2578125 274.42333984 C239.18717328 272.38965788 186.61615258 237.35043423 147 196 C145.22954542 194.05877323 143.50598181 192.09161542 141.8046875 190.08984375 C139.42889957 187.33866075 136.9639318 184.67190729 134.5 182 C129.29553478 176.34168238 124.21555373 170.59534339 119.22265625 164.75 C118.19015817 163.54162052 117.15760454 162.3332885 116.125 161.125 C115.60518555 160.5163208 115.08537109 159.9076416 114.54980469 159.28051758 C111.52081344 155.74337942 108.44835977 152.25590469 105.3125 148.8125 C101.45831715 144.56942663 97.84512269 140.16394935 94.2421875 135.70703125 C92.10516218 133.12696409 89.89264255 130.65285515 87.625 128.1875 C83.60756875 123.78016208 79.94543448 119.16843493 76.29956055 114.45605469 C72.96697379 110.17121779 69.49885366 106.03342715 65.9375 101.9375 C60.89031534 96.11184991 56.12426801 90.11171286 51.484375 83.95703125 C49.77317849 81.70095374 48.0433864 79.45975536 46.3125 77.21875 C4.50380853 22.96942351 4.50380853 22.96942351 0 0 Z"/>
<path transform="translate(2085,1282)" fill="#9d8869" d="M0 0 C0.83450684 0.25088379 1.66901367 0.50176758 2.52880859 0.76025391 C29.1937642 8.91443404 57.84477204 23.36782105 72.52734375 48.1875 C75.02810736 52.96349417 77.46519543 57.82003459 79 63 C78.67 63.99 78.34 64.98 78 66 C77.60345215 65.49210937 77.2069043 64.98421875 76.79833984 64.4609375 C72.32850507 59.01607461 67.71436116 55.47946593 61.625 52 C60.30943115 51.23308838 60.30943115 51.23308838 58.96728516 50.45068359 C38.45956124 38.66791578 17.22203106 31.38709396 -6 27 C-6.86689453 26.83338867 -7.73378906 26.66677734 -8.62695312 26.49511719 C-62.84126813 16.68780852 -122.28540649 24.39483079 -173.00610352 44.51806641 C-202.41834724 56.09483528 -232.60513851 64.14511511 -264 68 C-264.81750732 68.103125 -265.63501465 68.20625 -266.47729492 68.3125 C-275.9672981 69.34592767 -285.52795384 69.24380021 -295.0625 69.25 C-296.46252762 69.25101212 -296.46252762 69.25101212 -297.89083862 69.25204468 C-313.12232459 69.2346 -327.95337331 68.56060105 -343 66 C-344.04349609 65.82307617 -345.08699219 65.64615234 -346.16210938 65.46386719 C-397.01847309 56.55708117 -447.60243681 35.79418941 -487.25 2.26171875 C-487.7850415 1.81006348 -488.32008301 1.3584082 -488.87133789 0.89306641 C-490.33743015 -0.35248353 -491.79220205 -1.61132389 -493.24609375 -2.87109375 C-496.03943151 -5.03048251 -498.79704401 -6.53296125 -502 -8 C-501.67 -8.66 -501.34 -9.32 -501 -10 C-500.21915039 -9.6690332 -499.43830078 -9.33806641 -498.63378906 -8.99707031 C-450.92481158 11.10184076 -402.08174582 25.42299497 -350.5625 31.3125 C-349.85177338 31.39399292 -349.14104675 31.47548584 -348.40878296 31.55944824 C-293.1533298 37.78835879 -244.33184844 30.19972555 -192.9375 9.56640625 C-166.30956103 -1.08388144 -138.68751109 -8.64505506 -110 -11 C-108.85273437 -11.10957031 -107.70546875 -11.21914062 -106.5234375 -11.33203125 C-70.64633075 -14.31516097 -34.39293983 -10.54939139 0 0 Z"/>
<path transform="translate(1569.6796875,1059.140625)" fill="#9d8869" d="M0 0 C11.79165305 9.44920345 11.79165305 9.44920345 14.3203125 14.859375 C5.81739976 14.42579638 -2.60715564 13.69425918 -11.05859375 12.66796875 C-11.96652679 12.55796539 -12.87445984 12.44796204 -13.80990601 12.33462524 C-17.56603592 11.87618781 -21.32146895 11.41260933 -25.07592773 10.94067383 C-43.02439216 7.44249567 -43.02439216 7.44249567 -60.02734375 10.25024414 C-61.86899307 11.72610038 -61.86899307 11.72610038 -62.02734375 13.9453125 C-61.93324219 14.70070313 -61.83914063 15.45609375 -61.7421875 16.234375 C-61.63583984 17.35972656 -61.63583984 17.35972656 -61.52734375 18.5078125 C-59.37972136 24.46573267 -53.01260673 27.91199348 -47.9921875 31.359375 C-46.46551193 32.42226717 -44.93949139 33.48610067 -43.4140625 34.55078125 C-42.2394043 35.36893311 -42.2394043 35.36893311 -41.04101562 36.20361328 C-37.24743805 38.86366737 -33.49403456 41.57841917 -29.7421875 44.296875 C-28.99686768 44.83634766 -28.25154785 45.37582031 -27.48364258 45.93164062 C-25.97082467 47.0268993 -24.45821076 48.12243981 -22.94580078 49.21826172 C-19.19323965 51.93585663 -15.43630705 54.64739439 -11.6796875 57.359375 C-7.16576855 60.61806557 -2.65281085 63.8780416 1.85546875 67.14453125 C9.2929868 72.53026495 16.74941096 77.88529604 24.2578125 83.171875 C26.31234477 84.6213409 28.36666925 86.0711007 30.42089844 87.52099609 C31.65464511 88.39032762 32.88960477 89.25794117 34.12597656 90.12353516 C35.71586669 91.23773527 37.29958445 92.3607285 38.8828125 93.484375 C39.75035156 94.09539062 40.61789062 94.70640625 41.51171875 95.3359375 C42.10855469 95.83867188 42.70539063 96.34140625 43.3203125 96.859375 C43.3203125 97.519375 43.3203125 98.179375 43.3203125 98.859375 C13.87079835 100.83437968 -14.59057115 89.32560301 -40.6796875 76.859375 C-41.53224121 76.45960449 -42.38479492 76.05983398 -43.26318359 75.64794922 C-62.88832653 66.41969925 -82.64632074 55.30862794 -91.70703125 34.5 C-96.19346445 21.8470179 -93.74397971 9.9405279 -88.4296875 -1.93359375 C-84.88988185 -8.74168586 -80.86788718 -11.66748217 -73.6796875 -14.140625 C-72.31263672 -14.61628906 -72.31263672 -14.61628906 -70.91796875 -15.1015625 C-45.99195614 -22.20466152 -20.39367817 -15.07058251 0 0 Z"/>
</svg>