<?xml version="1.0" encoding="UTF-8"?>
<!DOCTYPE svg PUBLIC "-//W3C//DTD SVG 1.1//EN" "http://www.w3.org/Graphics/SVG/1.1/DTD/svg11.dtd">
<!-- Creator: CorelDRAW -->
<svg xmlns="http://www.w3.org/2000/svg" xml:space="preserve" width="2048px" height="2048px" style="shape-rendering:geometricPrecision; text-rendering:geometricPrecision; image-rendering:optimizeQuality; fill-rule:evenodd; clip-rule:evenodd"
viewBox="0 0 2048 2048"
 xmlns:xlink="http://www.w3.org/1999/xlink">
 <defs>
  <style type="text/css">
   <![CDATA[
    .fil2 {fill:none}
    .fil0 {fill:#424242}
    .fil1 {fill:#424242;fill-rule:nonzero}
   ]]>
  </style>
 </defs>
 <g id="Layer_x0020_1">
  <metadata id="CorelCorpID_0Corel-Layer"/>
  <g id="_366249904">
   <path id="_366250336" class="fil0" d="M893.032 554.232c-121.73,46.552 -173.44,148.98 -173.44,280.136l0 43.1481 105.093 0 0 -43.1481c0,-53.3221 12.2681,-86.7709 40.3205,-127.991l0 171.14 317.988 0 0 -171.14c28.0524,41.2205 40.3205,74.6693 40.3205,127.991l0 43.1481 105.093 0 0 -43.1481c0,-131.157 -51.7099,-233.584 -173.44,-280.136 -82.7257,-31.6359 -179.209,-31.6359 -261.936,0zm113.995 200.961l0 -189.685 33.9425 0 0 189.685 -33.9425 0z"/>
   <path id="_366250888" class="fil1" d="M1024 255.999c33.9898,0 64.7693,13.7823 87.0473,36.0603 22.278,22.278 36.0603,53.0563 36.0603,87.0485 0,33.991 -13.7823,64.7705 -36.0603,87.0485 -22.2768,22.278 -53.0528,36.0591 -87.0473,36.0591 -33.991,0 -64.7705,-13.7811 -87.0485,-36.0591 -22.278,-22.278 -36.0603,-53.0575 -36.0603,-87.0485 0,-33.9922 13.7823,-64.7705 36.0603,-87.0485 22.278,-22.278 53.0575,-36.0603 87.0485,-36.0603z"/>
   <polygon id="_366250816" class="fil1" points="541.486,909.516 1506.51,909.516 1506.51,977.401 541.486,977.401 "/>
   <rect id="_366250048" class="fil0" x="642.455" y="909.531" width="763.09" height="169.71"/>
   <path id="_366249640" class="fil0" d="M1308.76 1792c27.2882,-183.567 84.9875,-504.767 95.1591,-680.776l-759.836 0c10.291,176.758 67.9252,497.312 95.0599,680.776l569.617 0zm-381.892 -483.517l71.6753 0 0 -49.8402 50.9126 0 0 49.8402 71.6788 0 0 50.9115 -71.6788 0 0 170.782 -50.9126 0 0 -170.782 -71.6753 0 0 -50.9115z"/>
  </g>
 </g>
 <rect class="fil2" width="2048" height="2048"/>
</svg>
