<?xml version="1.0" encoding="UTF-8"?>
<!DOCTYPE svg PUBLIC "-//W3C//DTD SVG 1.1//EN" "http://www.w3.org/Graphics/SVG/1.1/DTD/svg11.dtd">
<!-- Creator: CorelDRAW -->
<svg xmlns="http://www.w3.org/2000/svg" xml:space="preserve" width="2048px" height="2048px" style="shape-rendering:geometricPrecision; text-rendering:geometricPrecision; image-rendering:optimizeQuality; fill-rule:evenodd; clip-rule:evenodd"
viewBox="0 0 2048 2048"
 xmlns:xlink="http://www.w3.org/1999/xlink">
 <defs>
  <style type="text/css">
   <![CDATA[
    .fil2 {fill:none}
    .fil1 {fill:#424242}
    .fil0 {fill:#424242;fill-rule:nonzero}
   ]]>
  </style>
 </defs>
 <g id="Layer_x0020_1">
  <metadata id="CorelCorpID_0Corel-Layer"/>
  <g id="_366254752">
   <polygon id="_366255928" class="fil0" points="540.087,1508.6 307.331,1508.6 263.694,1508.6 276.956,1466.97 540.087,641.06 "/>
   <g>
    <path id="_366255064" class="fil0" d="M1480.04 888.584c-12.5374,94.2579 -50.3752,182.634 -104.402,246.34 -52.8012,62.2619 -121.21,101.554 -197.438,101.544 -73.402,-0.00944883 -139.415,-36.326 -191.157,-94.519 -53.0493,-59.6682 -91.2615,-142.844 -106.532,-232.88 -1.36299,-8.03859 -3.20551,-17.6386 -5.15906,-27.8351 -5.59134,-29.165 -12.1051,-63.1252 -14.1721,-97.1587 -4.77756,-78.6804 13.1433,-152.806 109.197,-165.861 31.0973,-58.0642 90.3757,-92.5642 158.204,-102.925 42.9142,-6.5563 89.4875,-3.33071 134.334,9.84331 44.7957,13.1563 87.9237,36.2859 124.021,69.5528 67.9252,62.602 110.874,160.335 93.1052,293.899zm-145.473 211.588c47.6008,-56.1308 81.0119,-134.528 92.1863,-218.537 15.1181,-113.654 -20.1685,-195.66 -76.2556,-247.351 -29.824,-27.4866 -65.5619,-46.6276 -102.748,-57.5493 -37.1315,-10.9063 -75.6721,-13.5803 -111.167,-8.15788 -55.5071,8.47914 -102.945,37.0299 -123.576,84.9768 -3.77126,9.33898 -12.6532,16.1669 -23.3752,16.7977 -66.2552,4.02402 -78.0827,55.5745 -74.7426,110.564 1.83898,30.3012 8.02087,62.5323 13.3276,90.2103 1.9441,10.148 3.77835,19.6996 5.37166,29.0977 13.5815,80.0764 47.1827,153.619 93.6839,205.922 41.941,47.1697 94.1847,76.6064 150.927,76.6158 59.1119,0.00708662 113.424,-31.9524 156.367,-82.5886z"/>
    <path id="_366255616" class="fil0" d="M963.702 646.321c-0.173622,-14.8299 11.7083,-26.9965 26.5382,-27.1701 86.1709,-29.941 246.372,-182.234 416.683,46.5496 33.6603,45.215 17.4295,108.37 56.2819,186.947 2.96693,5.02087 5.89607,9.97914 7.65591,12.8705 7.73386,12.6791 3.72638,29.2299 -8.95158,36.9638 -12.6791,7.73623 -29.2299,3.72756 -36.9638,-8.9504 -3.45,-5.67048 -5.74489,-9.55394 -8.07757,-13.5036 -23.8311,-40.3288 -51.5776,-87.2788 -113.636,-74.165 -23.9469,5.05985 -41.6422,10.9347 -57.0993,16.0642 -43.9642,14.5925 -72.6426,24.1099 -148.544,2.5689 -15.137,-4.29449 -26.1744,-9.42757 -35.8559,-13.9299 -1.31811,-0.61063 -2.65866,-1.23425 -4.90394,-2.25355 -35.8276,-16.2555 -59.0162,-38.1532 -73.5969,-66.3745 -13.878,-26.8583 -19.0536,-58.3737 -19.5295,-95.6174z"/>
    <path id="_366255544" class="fil0" d="M1038.44 749.055c14.015,-4.88504 29.3398,2.51693 34.2248,16.5331 24.6225,70.7304 -16.7752,86.6198 -66.2375,105.598 -19.0914,7.32638 -40.0559,15.3732 -53.08,28.937 -5.06811,5.27953 -8.44843,11.4721 -10.4398,17.8477 -2.32677,7.45276 -2.74252,15.0969 -1.73386,21.8551 2.15079,14.7142 -8.03386,28.3878 -22.748,30.541 -14.713,2.15079 -28.389,-8.03386 -30.5398,-22.7469 -2.10354,-14.1165 -1.23543,-30.0815 3.62953,-45.6567 4.30985,-13.7917 11.765,-27.3319 23.0788,-39.1181 21.45,-22.3417 -36.6922,-166.021 -12.2811,-175.389 63.9296,-43.2177 65.8359,-60.9851 136.127,61.5993z"/>
    <path id="_366255496" class="fil0" d="M722.783 1406.02c2.12717,-2.53937 4.28268,-5.06339 6.46772,-7.57087 67.004,-76.8627 161.482,-138.152 271.275,-170.699l0.0141732 0.0448819c9.57048,-2.80748 20.3327,-0.142913 27.4713,7.74922 2.79567,3.0815 6.00355,6.38386 9.60473,9.89056 30.4146,29.6185 66.7359,47.7414 104.614,54.4075l0 0.287008 0 276.79 0 23.3599 11.4236 0 49.0855 0 11.4236 0 0 -23.3599 0 -276.79 0 -1.20236c36.2351,-7.213 71.6008,-24.6189 102.463,-52.193 0.402756,-0.415748 0.818505,-0.82441 1.25315,-1.2189 3.80551,-3.45236 7.35473,-6.85158 10.6287,-10.1906 6.71575,-7.27796 17.2134,-10.5555 27.3591,-7.57442 109.793,32.5465 204.271,93.8363 271.275,170.699 2.18504,2.50748 4.34055,5.03268 6.46772,7.57205l0 241.976 -910.826 0 0 -241.977z"/>
    <path id="_366255640" class="fil1" d="M1178.2 1337.92c12.0213,0 21.7642,9.74528 21.7642,21.7642 0,12.0213 -9.74292,21.7642 -21.7642,21.7642 -12.0201,0 -21.763,-9.74292 -21.763,-21.7642 0,-12.0189 9.74292,-21.7642 21.763,-21.7642z"/>
    <path id="_366255304" class="fil1" d="M1178.2 1476.22c12.0213,0 21.7642,9.7441 21.7642,21.763 0,12.0213 -9.74292,21.7642 -21.7642,21.7642 -12.0201,0 -21.763,-9.74292 -21.763,-21.7642 0,-12.0189 9.74292,-21.763 21.763,-21.763z"/>
   </g>
   <path id="_366254944" class="fil1" d="M706.784 367.998l942.824 0 15.9992 0 0.0011811 16.0004 0 1280 -0.0011811 16.0004 -15.9992 0 -942.824 0 -16.0004 0 0 -16.0004 0 -1280 0 -16.0004 16.0004 0zm1077.52 1392l0 -1472 0 -32.0008 -32.0008 0 -1148.22 0 -32.0008 0 0 32.0008 0 1472 0 32.0008 32.0008 0 1148.22 0 32.0008 0 0 -32.0008z"/>
  </g>
 </g>
 <rect class="fil2" width="2048" height="2048"/>
</svg>
